<svg xmlns="http://www.w3.org/2000/svg" xmlns:xlink="http://www.w3.org/1999/xlink" xmlns:lucid="lucid" width="679.13" height="1060"><g transform="translate(-120 -20)" lucid:page-tab-id="0_0"><path d="M299.77 282.1c-.76.08-1.36.23-1.97.53l-26.3 12.96c-1.44.67-2.42 1.9-2.72 3.48l-6.52 29.17c-.3 1.37-.08 2.73.68 3.94.08.15.15.22.3.37l18.2 23.34c.98 1.3 2.34 1.98 3.93 1.98h29.26c1.6 0 2.95-.68 3.94-1.97l18.18-23.33c1-1.3 1.37-2.8 1-4.4l-6.53-29.1c-.3-1.58-1.3-2.8-2.73-3.48l-26.3-12.97c-.84-.37-1.6-.6-2.43-.53z" stroke="#000" stroke-opacity="0" stroke-width="3.83" fill="#326ce5"/><path d="M299.76 280c-.8.08-1.44.24-2.08.56l-27.76 13.68c-1.52.72-2.56 2-2.88 3.68l-6.88 30.8c-.32 1.44-.08 2.88.72 4.16.08.16.16.24.32.4l19.2 24.64c1.04 1.36 2.48 2.08 4.16 2.08h30.88c1.68 0 3.12-.72 4.16-2.08l19.2-24.64c1.04-1.36 1.44-2.96 1.04-4.64l-6.88-30.72c-.32-1.68-1.36-2.96-2.88-3.68l-27.76-13.68c-.88-.4-1.68-.64-2.56-.56zm0 2.16c.88-.08 1.6.08 2.4.48l26.4 12.96c1.36.72 2.32 1.92 2.72 3.52l6.48 29.12c.32 1.6 0 3.04-.96 4.32l-18.24 23.36c-.96 1.28-2.32 2-3.92 2h-29.28c-1.6 0-2.96-.72-3.92-2l-18.24-23.36c-.08-.08-.16-.24-.24-.4-.8-1.2-1.04-2.48-.72-3.92l6.48-29.12c.4-1.6 1.28-2.8 2.72-3.52l26.4-12.96c.64-.32 1.2-.48 1.92-.48z" stroke="#000" stroke-opacity="0" stroke-width="3.83" fill="#fff"/><path d="M296.3 349.58c0 .64-.25 1.14-.72 1.5-.47.34-1.13.5-1.98.5-.82 0-1.46-.13-1.9-.4-.45-.3-.73-.72-.87-1.32l.97-.2c.1.37.3.64.58.82.3.17.7.25 1.22.25.56 0 .97-.1 1.22-.27.27-.17.4-.44.4-.8 0-.26-.1-.48-.27-.65-.18-.15-.47-.3-.87-.4l-.8-.22c-.62-.16-1.07-.33-1.34-.5-.27-.15-.47-.35-.62-.58-.15-.23-.23-.52-.23-.85 0-.62.2-1.1.63-1.4.44-.35 1.06-.5 1.9-.5.7 0 1.3.13 1.72.4.43.25.7.68.82 1.26l-1 .14c-.05-.3-.22-.54-.48-.7-.28-.16-.63-.24-1.08-.24-.5 0-.87.08-1.1.23-.24.16-.36.4-.36.7 0 .2.05.36.15.5.1.1.25.22.44.3.2.1.6.22 1.2.37s1 .3 1.27.43c.27.12.47.26.62.42.14.15.26.33.35.54.08.2.12.42.12.68zM300.48 351.46h-1.3l-2.4-6.82h1.17l1.46 4.44c.06.16.2.66.43 1.5l.2-.75.25-.74 1.5-4.46h1.17zM304.67 348.03c0 .9.14 1.58.42 2.02.26.43.68.65 1.24.65.4 0 .72-.1.98-.33.26-.22.43-.55.5-1l1.1.07c-.1.65-.36 1.18-.82 1.57-.45.4-1.03.6-1.73.6-.93 0-1.63-.3-2.12-.9-.48-.6-.73-1.5-.73-2.65 0-1.14.25-2.02.74-2.62.48-.6 1.18-.9 2.1-.9.68 0 1.24.18 1.68.54.45.36.73.85.84 1.5l-1.13.08c-.06-.38-.2-.68-.43-.9-.24-.23-.57-.33-1-.33-.57 0-1 .2-1.26.6-.26.4-.4 1.06-.4 2z" stroke="#000" stroke-opacity="0" fill="#fff"/><path d="M275.95 326.1h12.9v9.32h-12.9zM293.55 326.1h12.9v9.32h-12.9zM311.15 326.1h12.9v9.32h-12.9zM289.78 298.43h20.44v9.33h-20.44zM298.82 307.76v7.95h-16.4c-.66 0-1.18.56-1.18 1.22v9.16h2.33v-7.95H300c.65 0 1.17-.54 1.17-1.2v-9.17z" stroke="#000" stroke-opacity="0" stroke-width="3.77" fill="#fff"/><path d="M298.83 307.76v9.16c0 .67.52 1.2 1.18 1.2h16.4v7.96h2.36v-9.16c0-.66-.52-1.2-1.18-1.2h-16.42v-7.96z" stroke="#000" stroke-opacity="0" stroke-width="3.77" fill="#fff"/><path d="M298.8 307.76v9.16c0 .14 0 .3.06.42v8.74h2.35v-9.16c0-.15 0-.28-.07-.43v-8.74z" stroke="#000" stroke-opacity="0" stroke-width="3.77" fill="#fff"/><use xlink:href="#a" transform="matrix(1,0,0,1,230,369) translate(30 14.4)"/><path d="M539.77 282.1c-.76.08-1.36.23-1.97.53l-26.3 12.96c-1.44.67-2.42 1.9-2.72 3.48l-6.52 29.17c-.3 1.37-.08 2.73.68 3.94.08.15.15.22.3.37l18.2 23.34c.98 1.3 2.34 1.98 3.93 1.98h29.26c1.6 0 2.95-.68 3.94-1.97l18.18-23.33c1-1.3 1.37-2.8 1-4.4l-6.53-29.1c-.3-1.58-1.3-2.8-2.73-3.48l-26.3-12.97c-.84-.37-1.6-.6-2.43-.53z" stroke="#000" stroke-opacity="0" stroke-width="3.83" fill="#326ce5"/><path d="M539.76 280c-.8.08-1.44.24-2.08.56l-27.76 13.68c-1.52.72-2.56 2-2.88 3.68l-6.88 30.8c-.32 1.44-.08 2.88.72 4.16.08.16.16.24.32.4l19.2 24.64c1.04 1.36 2.48 2.08 4.16 2.08h30.88c1.68 0 3.12-.72 4.16-2.08l19.2-24.64c1.04-1.36 1.44-2.96 1.04-4.64l-6.88-30.72c-.32-1.68-1.36-2.96-2.88-3.68l-27.76-13.68c-.88-.4-1.68-.64-2.56-.56zm0 2.16c.88-.08 1.6.08 2.4.48l26.4 12.96c1.36.72 2.32 1.92 2.72 3.52l6.48 29.12c.32 1.6 0 3.04-.96 4.32l-18.24 23.36c-.96 1.28-2.32 2-3.92 2h-29.28c-1.6 0-2.96-.72-3.92-2l-18.24-23.36c-.08-.08-.16-.24-.24-.4-.8-1.2-1.04-2.48-.72-3.92l6.48-29.12c.4-1.6 1.28-2.8 2.72-3.52l26.4-12.96c.64-.32 1.2-.48 1.92-.48z" stroke="#000" stroke-opacity="0" stroke-width="3.83" fill="#fff"/><path d="M536.3 349.58c0 .64-.25 1.14-.72 1.5-.47.34-1.13.5-1.98.5-.82 0-1.46-.13-1.9-.4-.45-.3-.73-.72-.87-1.32l.97-.2c.1.37.3.64.58.82.3.17.7.25 1.22.25.56 0 .97-.1 1.22-.27.27-.17.4-.44.4-.8 0-.26-.1-.48-.27-.65-.18-.15-.47-.3-.87-.4l-.8-.22c-.62-.16-1.07-.33-1.34-.5-.27-.15-.47-.35-.62-.58-.15-.23-.23-.52-.23-.85 0-.62.2-1.1.63-1.4.44-.35 1.06-.5 1.9-.5.7 0 1.3.13 1.72.4.43.25.7.68.82 1.26l-1 .14c-.05-.3-.22-.54-.48-.7-.28-.16-.63-.24-1.08-.24-.5 0-.87.08-1.1.23-.24.16-.36.4-.36.7 0 .2.05.36.15.5.1.1.25.22.44.3.2.1.6.22 1.2.37s1 .3 1.27.43c.27.12.47.26.62.42.14.15.26.33.35.54.08.2.12.42.12.68zM540.48 351.46h-1.3l-2.4-6.82h1.17l1.46 4.44c.06.16.2.66.43 1.5l.2-.75.25-.74 1.5-4.46h1.17zM544.67 348.03c0 .9.14 1.58.42 2.02.26.43.68.65 1.24.65.4 0 .72-.1.98-.33.26-.22.43-.55.5-1l1.1.07c-.1.65-.36 1.18-.82 1.57-.45.4-1.03.6-1.73.6-.93 0-1.63-.3-2.12-.9-.48-.6-.73-1.5-.73-2.65 0-1.14.25-2.02.74-2.62.48-.6 1.18-.9 2.1-.9.68 0 1.24.18 1.68.54.45.36.73.85.84 1.5l-1.13.08c-.06-.38-.2-.68-.43-.9-.24-.23-.57-.33-1-.33-.57 0-1 .2-1.26.6-.26.4-.4 1.06-.4 2z" stroke="#000" stroke-opacity="0" fill="#fff"/><path d="M515.95 326.1h12.9v9.32h-12.9zM533.55 326.1h12.9v9.32h-12.9zM551.15 326.1h12.9v9.32h-12.9zM529.78 298.43h20.44v9.33h-20.44zM538.82 307.76v7.95h-16.4c-.66 0-1.18.56-1.18 1.22v9.16h2.33v-7.95H540c.65 0 1.17-.54 1.17-1.2v-9.17z" stroke="#000" stroke-opacity="0" stroke-width="3.77" fill="#fff"/><path d="M538.83 307.76v9.16c0 .67.52 1.2 1.18 1.2h16.4v7.96h2.36v-9.16c0-.66-.52-1.2-1.18-1.2h-16.42v-7.96z" stroke="#000" stroke-opacity="0" stroke-width="3.77" fill="#fff"/><path d="M538.8 307.76v9.16c0 .14 0 .3.06.42v8.74h2.35v-9.16c0-.15 0-.28-.07-.43v-8.74z" stroke="#000" stroke-opacity="0" stroke-width="3.77" fill="#fff"/><use xlink:href="#b" transform="matrix(1,0,0,1,470,369) translate(22.549999999999997 14.4)"/><path d="M389.77 582.1c-.76.1-1.36.24-1.97.54l-26.3 12.96c-1.44.68-2.42 1.9-2.72 3.5l-6.52 29.16c-.3 1.37-.08 2.73.68 3.94.08.15.15.23.3.38l18.2 23.34c.98 1.3 2.34 1.97 3.93 1.97h29.26c1.6 0 2.95-.7 3.94-1.98l18.18-23.34c1-1.3 1.37-2.8 1-4.4l-6.53-29.1c-.3-1.6-1.3-2.8-2.73-3.48l-26.3-12.96c-.84-.38-1.6-.6-2.43-.53z" stroke="#000" stroke-opacity="0" stroke-width="3.83" fill="#326ce5"/><path d="M389.76 580c-.8.08-1.44.24-2.08.56l-27.76 13.68c-1.52.72-2.56 2-2.88 3.68l-6.88 30.8c-.32 1.44-.08 2.88.72 4.16.08.16.16.24.32.4l19.2 24.64c1.04 1.36 2.48 2.08 4.16 2.08h30.88c1.68 0 3.12-.72 4.16-2.08l19.2-24.64c1.04-1.36 1.44-2.96 1.04-4.56l-6.88-30.8c-.32-1.68-1.36-2.96-2.88-3.68l-27.76-13.68c-.88-.4-1.68-.64-2.56-.56zm0 2.16c.88-.08 1.6.08 2.4.48l26.4 12.96c1.36.72 2.32 1.92 2.72 3.52l6.48 29.12c.32 1.6 0 3.04-.96 4.32l-18.24 23.36c-.96 1.28-2.32 2-3.92 2h-29.28c-1.6 0-2.96-.72-3.92-2l-18.24-23.36c-.08-.08-.16-.24-.24-.4-.8-1.2-1.04-2.48-.72-3.92l6.48-29.12c.4-1.6 1.28-2.8 2.72-3.52l26.4-12.96c.64-.32 1.2-.48 1.92-.56z" stroke="#000" stroke-opacity="0" stroke-width="3.83" fill="#fff"/><path d="M381.18 599.36v3.4h2.35v-2.2h4.85v-2.42h-6c-.98 0-1.2.33-1.2 1.22zm11.9 1.2h9.38v-2.42h-9.4zm14.07 0h2.97v4.2h2.35v-5.4c0-.96-.5-1.2-1.2-1.22h-4.12zm-25.97 8.26v8.46h2.35v-9.67h-2.35zm28.94 2v8.47h2.35v-9.7h-2.35zm-26 10.7h9.4v-2.44h-9.4zm19.43 0h4.04v-2.44h-4.05z" stroke="#000" stroke-opacity="0" stroke-width="3.77" fill="#fff"/><path d="M374.36 605.8v4.4h2.35v-3.18h3.92v-2.43h-5.07c-.97 0-1.2.32-1.2 1.2zm10.98 1.22h9.35v-2.43h-9.36zm14.05 0h3.9v3.23h2.34v-4.44c0-.74-.3-1.23-1.15-1.2h-5.1zm-25.04 9.23v8.46h2.35v-9.66h-2.34zm28.94.05v8.46h2.34v-9.67h-2.34zm-25.06 11.66h9.38v-2.4h-9.38zm14.08 0h9.38v-2.4h-9.38z" stroke="#000" stroke-opacity="0" stroke-width="3.77" fill="#fff"/><path d="M367.54 633.25v-22.2l29.95.02c.92 0 1.33.8 1.33 1.38l-.03 20.75c-.03.8-.66 1.24-1.28 1.22h-28.8c-.52 0-1.2-.45-1.18-1.17z" stroke="#000" stroke-opacity="0" stroke-width="3.77" fill="#fff"/><path d="M382.95 613.16c-3.42 0-6.53.4-8.87 1.07-1.16.35-2.15.77-2.94 1.3-.77.54-1.46 1.32-1.46 2.4v9.6c0 1.08.7 1.84 1.46 2.38.8.56 1.78.97 2.94 1.3 2.34.7 5.45 1.1 8.87 1.1 3.43 0 6.54-.4 8.87-1.1 1.17-.33 2.15-.74 2.95-1.3.77-.53 1.46-1.3 1.46-2.36v-9.6c0-1.1-.7-1.87-1.46-2.4-.8-.54-1.78-.96-2.95-1.3-2.33-.68-5.44-1.08-8.87-1.08zm0 2.4c3.24 0 6.2.4 8.24 1 1.02.3 1.8.68 2.24.98.45.3.45.46.45.4 0-.1 0 .04-.46.37-.45.32-1.22.66-2.25.97-2.06.6-5 1-8.25 1-3.24 0-6.18-.4-8.23-1-1.03-.3-1.8-.65-2.26-.96-.45-.32-.45-.47-.45-.37 0 .07 0-.08.46-.4.46-.3 1.23-.66 2.26-.96 2.05-.6 5-1 8.23-1zM372 620.7c.65.33 1.26.67 2.08.92 2.34.7 5.45 1.1 8.87 1.1 3.43 0 6.54-.4 8.87-1.1.83-.25 1.44-.6 2.07-.92v6.86c0-.08 0 .07-.46.38-.45.3-1.22.67-2.25.96-2.06.6-5 1-8.25 1-3.24 0-6.18-.4-8.23-1-1.03-.3-1.8-.66-2.26-.96-.45-.3-.45-.46-.45-.38z" stroke="#000" stroke-opacity="0" stroke-width="3.77" fill="#326ce5"/><path d="M387.37 649.65c0 .64-.24 1.13-.7 1.48-.48.35-1.14.52-2 .52-.8 0-1.45-.14-1.9-.4-.44-.3-.72-.73-.86-1.32l.98-.2c.1.37.3.63.58.8.3.18.7.26 1.22.26.56 0 .97-.1 1.22-.27.27-.18.4-.45.4-.8 0-.27-.1-.5-.27-.66-.18-.16-.47-.3-.87-.4l-.8-.22c-.62-.17-1.07-.33-1.34-.5-.27-.16-.47-.36-.62-.6-.15-.2-.23-.5-.23-.83 0-.63.2-1.1.64-1.42.45-.33 1.07-.5 1.9-.5.72 0 1.3.14 1.73.4.43.27.7.7.82 1.28l-1 .12c-.05-.3-.22-.53-.48-.7-.27-.16-.62-.24-1.07-.24-.5 0-.87.08-1.1.24-.24.15-.36.4-.36.7 0 .2.05.35.15.48.1.12.23.23.42.32.2.1.6.2 1.2.37.6.14 1 .28 1.27.42.25.12.45.26.6.4.14.17.26.34.35.55.08.2.12.43.12.7zM391.2 651.52c-.35.1-.73.15-1.1.15-.88 0-1.33-.5-1.33-1.54v-4.55H388v-.82h.82l.32-1.53h.73v1.53h1.23v.82h-1.23v4.3c0 .33.05.56.16.7.1.13.28.2.54.2.15 0 .36-.04.64-.1zM397.1 649.65c0 .64-.24 1.13-.7 1.48-.48.35-1.14.52-2 .52-.8 0-1.45-.14-1.9-.4-.44-.3-.73-.73-.86-1.32l.97-.2c.1.37.3.63.6.8.28.18.7.26 1.2.26.57 0 .98-.1 1.23-.27.26-.18.4-.45.4-.8 0-.27-.1-.5-.27-.66-.18-.16-.47-.3-.87-.4l-.8-.22c-.63-.17-1.08-.33-1.35-.5-.27-.16-.47-.36-.62-.6-.15-.2-.23-.5-.23-.83 0-.63.2-1.1.64-1.42.44-.33 1.06-.5 1.9-.5.7 0 1.3.14 1.72.4.43.27.7.7.82 1.28l-1 .12c-.05-.3-.22-.53-.48-.7-.27-.16-.63-.24-1.07-.24-.5 0-.87.08-1.1.24-.24.15-.36.4-.36.7 0 .2.05.35.15.48.1.12.24.23.43.32.2.1.6.2 1.2.37.6.14 1 .28 1.27.42.26.12.46.26.6.4.15.17.27.34.36.55.08.2.12.43.12.7z" stroke="#000" stroke-opacity="0" fill="#fff"/><use xlink:href="#c" transform="matrix(1,0,0,1,320,669) translate(22.549999999999997 14.4)"/><path d="M719.77 644.35c-.76.07-1.36.23-1.97.53l-26.3 12.96c-1.44.68-2.42 1.9-2.72 3.48l-6.52 29.18c-.3 1.36-.08 2.73.68 3.94.08.15.15.23.3.38l18.2 23.34c.98 1.3 2.34 1.97 3.93 1.97h29.26c1.6 0 2.95-.68 3.94-1.97l18.18-23.34c1-1.3 1.37-2.8 1-4.4l-6.53-29.1c-.3-1.6-1.3-2.8-2.73-3.48l-26.3-12.96c-.84-.38-1.6-.6-2.43-.53z" stroke="#000" stroke-opacity="0" stroke-width="3.83" fill="#326ce5"/><path d="M719.76 642.24c-.8.08-1.44.24-2.08.56l-27.76 13.68c-1.52.72-2.56 2-2.88 3.68l-6.88 30.8c-.32 1.44-.08 2.88.72 4.16.08.16.16.24.32.4l19.2 24.64c1.04 1.36 2.48 2.08 4.16 2.08h30.88c1.68 0 3.12-.72 4.16-2.08l19.2-24.64c1.04-1.36 1.44-2.96 1.04-4.56l-6.88-30.8c-.32-1.68-1.36-2.96-2.88-3.68l-27.76-13.68c-.88-.4-1.68-.64-2.56-.56zm0 2.16c.88-.08 1.6.08 2.4.48l26.4 12.96c1.36.72 2.32 1.92 2.72 3.52l6.48 29.12c.32 1.6 0 3.04-.96 4.32l-18.24 23.36c-.96 1.28-2.32 2-3.92 2h-29.28c-1.6 0-2.96-.72-3.92-2L683.2 694.8c-.08-.08-.16-.24-.24-.4-.8-1.2-1.04-2.48-.72-3.92l6.48-29.12c.4-1.6 1.28-2.8 2.72-3.52l26.4-12.96c.64-.32 1.2-.48 1.92-.56z" stroke="#000" stroke-opacity="0" stroke-width="3.83" fill="#fff"/><path d="M711.18 661.6v3.4h2.35v-2.2h4.85v-2.42h-6c-.98 0-1.2.33-1.2 1.2zm11.9 1.2h9.38v-2.42h-9.4zm14.07 0h2.97v4.2h2.35v-5.4c0-.96-.5-1.2-1.2-1.22h-4.12zm-25.97 8.26v8.46h2.35v-9.68h-2.35zm28.94 2v8.47h2.35v-9.7h-2.35zm-26 10.7h9.4v-2.44h-9.4zm19.43 0h4.04v-2.44h-4.05z" stroke="#000" stroke-opacity="0" stroke-width="3.77" fill="#fff"/><path d="M704.36 668.05v4.4h2.35v-3.2h3.92v-2.42h-5.07c-.97 0-1.2.33-1.2 1.22zm10.98 1.2h9.35v-2.42h-9.36zm14.05 0h3.9v3.24h2.34v-4.45c0-.75-.3-1.24-1.15-1.22h-5.1zm-25.04 9.24v8.45h2.35v-9.67h-2.34zm28.94.04V687h2.34v-9.68h-2.34zm-25.06 11.66h9.38v-2.4h-9.38zm14.08 0h9.38v-2.4h-9.38z" stroke="#000" stroke-opacity="0" stroke-width="3.77" fill="#fff"/><path d="M697.54 695.5v-22.22l29.95.02c.92 0 1.33.8 1.33 1.38l-.03 20.76c-.03.8-.66 1.24-1.28 1.2h-28.8c-.52 0-1.2-.43-1.18-1.15z" stroke="#000" stroke-opacity="0" stroke-width="3.77" fill="#fff"/><path d="M712.95 675.4c-3.42 0-6.53.4-8.87 1.07-1.16.34-2.15.77-2.94 1.3-.77.54-1.46 1.32-1.46 2.4v9.6c0 1.08.7 1.84 1.46 2.38.8.55 1.78.95 2.94 1.3 2.34.7 5.45 1.1 8.87 1.1 3.43 0 6.54-.4 8.87-1.1 1.17-.35 2.15-.75 2.95-1.3.77-.54 1.46-1.3 1.46-2.38v-9.6c0-1.08-.7-1.86-1.46-2.4-.8-.53-1.78-.96-2.95-1.3-2.33-.67-5.44-1.07-8.87-1.07zm0 2.4c3.24 0 6.2.4 8.24 1 1.02.3 1.8.67 2.24.98.45.3.45.46.45.38 0-.1 0 .06-.46.4-.45.3-1.22.64-2.25.94-2.06.6-5 1-8.25 1-3.24 0-6.18-.4-8.23-1-1.03-.3-1.8-.65-2.26-.95-.45-.33-.45-.48-.45-.4 0 .1 0-.06.46-.37.46-.3 1.23-.67 2.26-.98 2.05-.6 5-1 8.23-1zM702 682.93c.65.33 1.26.67 2.08.92 2.34.7 5.45 1.1 8.87 1.1 3.43 0 6.54-.4 8.87-1.1.83-.25 1.44-.6 2.07-.92v6.85c0-.07 0 .08-.46.4-.45.3-1.22.66-2.25.94-2.06.63-5 1.03-8.25 1.03-3.24 0-6.18-.4-8.23-1.02-1.03-.27-1.8-.64-2.26-.94-.45-.3-.45-.46-.45-.4z" stroke="#000" stroke-opacity="0" stroke-width="3.77" fill="#326ce5"/><path d="M717.37 711.88c0 .64-.24 1.14-.7 1.5-.48.34-1.14.5-2 .5-.8 0-1.45-.13-1.9-.4-.44-.3-.72-.72-.86-1.32l.98-.2c.1.37.3.64.58.82.3.17.7.25 1.22.25.56 0 .97-.1 1.22-.27.27-.17.4-.44.4-.8 0-.26-.1-.48-.27-.65-.18-.15-.47-.3-.87-.4l-.8-.22c-.62-.16-1.07-.33-1.34-.5-.27-.15-.47-.35-.62-.58-.15-.23-.23-.52-.23-.85 0-.62.2-1.1.64-1.4.45-.35 1.07-.5 1.9-.5.72 0 1.3.13 1.73.4.43.26.7.68.82 1.26l-1 .14c-.05-.3-.22-.54-.48-.7-.27-.16-.62-.24-1.07-.24-.5 0-.87.08-1.1.24-.24.15-.36.38-.36.7 0 .2.05.35.15.48.1.12.23.23.42.32.2.1.6.2 1.2.36.6.15 1 .3 1.27.43.25.12.45.26.6.42.14.15.26.33.35.54.08.2.12.42.12.68zM721.2 713.76c-.35.1-.73.15-1.1.15-.88 0-1.33-.5-1.33-1.54v-4.55H718v-.8h.82l.32-1.53h.73V707h1.23v.8h-1.23v4.32c0 .33.05.56.16.7.1.13.28.18.54.18.15 0 .36-.02.64-.08zM727.1 711.88c0 .64-.24 1.14-.7 1.5-.48.34-1.14.5-2 .5-.8 0-1.45-.13-1.9-.4-.44-.3-.73-.72-.86-1.32l.97-.2c.1.37.3.64.6.82.28.17.7.25 1.2.25.57 0 .98-.1 1.23-.27.26-.17.4-.44.4-.8 0-.26-.1-.48-.27-.65-.18-.15-.47-.3-.87-.4l-.8-.22c-.63-.16-1.08-.33-1.35-.5-.27-.15-.47-.35-.62-.58-.15-.23-.23-.52-.23-.85 0-.62.2-1.1.64-1.4.44-.35 1.06-.5 1.9-.5.7 0 1.3.13 1.72.4.43.26.7.68.82 1.26l-1 .14c-.05-.3-.22-.54-.48-.7-.27-.16-.63-.24-1.07-.24-.5 0-.87.08-1.1.24-.24.15-.36.38-.36.7 0 .2.05.35.15.48.1.12.24.23.43.32.2.1.6.2 1.2.36.6.15 1 .3 1.27.43.26.12.46.26.6.42.15.15.27.33.36.54.08.2.12.42.12.68z" stroke="#000" stroke-opacity="0" fill="#fff"/><use xlink:href="#d" transform="matrix(1,0,0,1,650,731.2375205523077) translate(17.624999999999993 14.4)"/><path d="M179.77 862.1c-.76.1-1.36.24-1.97.54l-26.3 12.96c-1.44.68-2.42 1.9-2.72 3.5l-6.52 29.16c-.3 1.37-.08 2.73.68 3.94.08.15.15.23.3.38l18.2 23.34c.98 1.3 2.34 1.97 3.93 1.97h29.26c1.6 0 2.95-.7 3.94-1.98l18.18-23.34c1-1.3 1.37-2.8 1-4.4l-6.53-29.1c-.3-1.6-1.3-2.8-2.73-3.48l-26.3-12.96c-.84-.38-1.6-.6-2.43-.53z" stroke="#000" stroke-opacity="0" stroke-width="3.83" fill="#326ce5"/><path d="M179.76 860c-.8.08-1.44.24-2.08.56l-27.76 13.68c-1.52.72-2.56 2-2.88 3.68l-6.88 30.8c-.32 1.44-.08 2.88.72 4.16.08.16.16.24.32.4l19.2 24.64c1.04 1.36 2.48 2.08 4.16 2.08h30.88c1.68 0 3.12-.72 4.16-2.08l19.2-24.64c1.04-1.36 1.44-2.96 1.04-4.56l-6.88-30.8c-.32-1.68-1.36-2.96-2.88-3.68l-27.76-13.68c-.88-.4-1.68-.64-2.56-.56zm0 2.16c.88-.08 1.6.08 2.4.48l26.4 12.96c1.36.72 2.32 1.92 2.72 3.52l6.48 29.12c.32 1.6 0 3.04-.96 4.32l-18.24 23.36c-.96 1.28-2.32 2-3.92 2h-29.28c-1.6 0-2.96-.72-3.92-2l-18.24-23.36c-.08-.08-.16-.24-.24-.4-.8-1.2-1.04-2.48-.72-3.92l6.48-29.12c.4-1.6 1.28-2.8 2.72-3.52l26.4-12.96c.64-.32 1.2-.48 1.92-.56z" stroke="#000" stroke-opacity="0" stroke-width="3.83" fill="#fff"/><path d="M171.18 879.36v3.4h2.35v-2.2h4.85v-2.42h-6c-.98 0-1.2.33-1.2 1.22zm11.9 1.2h9.38v-2.42h-9.4zm14.07 0h2.97v4.2h2.35v-5.4c0-.96-.5-1.2-1.2-1.22h-4.12zm-25.97 8.26v8.46h2.35v-9.67h-2.35zm28.94 2v8.47h2.35v-9.7h-2.35zm-26 10.7h9.4v-2.44h-9.4zm19.43 0h4.04v-2.44h-4.05z" stroke="#000" stroke-opacity="0" stroke-width="3.77" fill="#fff"/><path d="M164.36 885.8v4.4h2.35v-3.18h3.92v-2.43h-5.07c-.97 0-1.2.32-1.2 1.2zm10.98 1.22h9.35v-2.43h-9.36zm14.05 0h3.9v3.23h2.34v-4.44c0-.74-.3-1.23-1.15-1.2h-5.1zm-25.04 9.23v8.46h2.35v-9.66h-2.34zm28.94.05v8.46h2.34v-9.67h-2.34zm-25.06 11.66h9.38v-2.4h-9.38zm14.08 0h9.38v-2.4h-9.38z" stroke="#000" stroke-opacity="0" stroke-width="3.77" fill="#fff"/><path d="M157.54 913.25v-22.2l29.95.02c.92 0 1.33.8 1.33 1.38l-.03 20.75c-.03.8-.66 1.24-1.28 1.22h-28.8c-.52 0-1.2-.45-1.18-1.17z" stroke="#000" stroke-opacity="0" stroke-width="3.77" fill="#fff"/><path d="M172.95 893.16c-3.42 0-6.53.4-8.87 1.07-1.16.35-2.15.77-2.94 1.3-.77.54-1.46 1.32-1.46 2.4v9.6c0 1.08.7 1.84 1.46 2.38.8.56 1.78.97 2.94 1.3 2.34.7 5.45 1.1 8.87 1.1 3.43 0 6.54-.4 8.87-1.1 1.17-.33 2.15-.74 2.95-1.3.77-.53 1.46-1.3 1.46-2.36v-9.6c0-1.1-.7-1.87-1.46-2.4-.8-.54-1.78-.96-2.95-1.3-2.33-.68-5.44-1.08-8.87-1.08zm0 2.4c3.24 0 6.2.4 8.24 1 1.02.3 1.8.68 2.24.98.45.3.45.46.45.4 0-.1 0 .04-.46.37-.45.32-1.22.66-2.25.97-2.06.6-5 1-8.25 1-3.24 0-6.18-.4-8.23-1-1.03-.3-1.8-.65-2.26-.96-.45-.32-.45-.47-.45-.37 0 .07 0-.08.46-.4.46-.3 1.23-.66 2.26-.96 2.05-.6 5-1 8.23-1zM162 900.7c.65.33 1.26.67 2.08.92 2.34.7 5.45 1.1 8.87 1.1 3.43 0 6.54-.4 8.87-1.1.83-.25 1.44-.6 2.07-.92v6.86c0-.08 0 .07-.46.38-.45.3-1.22.67-2.25.96-2.06.6-5 1-8.25 1-3.24 0-6.18-.4-8.23-1-1.03-.3-1.8-.66-2.26-.96-.45-.3-.45-.46-.45-.38z" stroke="#000" stroke-opacity="0" stroke-width="3.77" fill="#326ce5"/><path d="M177.37 929.65c0 .64-.24 1.13-.7 1.48-.48.35-1.14.52-2 .52-.8 0-1.45-.14-1.9-.4-.44-.3-.72-.73-.86-1.32l.98-.2c.1.37.3.63.58.8.3.18.7.26 1.22.26.56 0 .97-.1 1.22-.27.27-.18.4-.45.4-.8 0-.27-.1-.5-.27-.66-.18-.16-.47-.3-.87-.4l-.8-.22c-.62-.17-1.07-.33-1.34-.5-.27-.16-.47-.36-.62-.6-.15-.2-.23-.5-.23-.83 0-.63.2-1.1.64-1.42.45-.33 1.07-.5 1.9-.5.72 0 1.3.14 1.73.4.43.27.7.7.82 1.28l-1 .12c-.05-.3-.22-.53-.48-.7-.27-.16-.62-.24-1.07-.24-.5 0-.87.08-1.1.24-.24.15-.36.4-.36.7 0 .2.05.35.15.48.1.12.23.23.42.32.2.1.6.2 1.2.37.6.14 1 .28 1.27.42.25.12.45.26.6.4.14.17.26.34.35.55.08.2.12.43.12.7zM181.2 931.52c-.35.1-.73.15-1.1.15-.88 0-1.33-.5-1.33-1.54v-4.55H178v-.82h.82l.32-1.53h.73v1.53h1.23v.82h-1.23v4.3c0 .33.05.56.16.7.1.13.28.2.54.2.15 0 .36-.04.64-.1zM187.1 929.65c0 .64-.24 1.13-.7 1.48-.48.35-1.14.52-2 .52-.8 0-1.45-.14-1.9-.4-.44-.3-.73-.73-.86-1.32l.97-.2c.1.37.3.63.6.8.28.18.7.26 1.2.26.57 0 .98-.1 1.23-.27.26-.18.4-.45.4-.8 0-.27-.1-.5-.27-.66-.18-.16-.47-.3-.87-.4l-.8-.22c-.63-.17-1.08-.33-1.35-.5-.27-.16-.47-.36-.62-.6-.15-.2-.23-.5-.23-.83 0-.63.2-1.1.64-1.42.44-.33 1.06-.5 1.9-.5.7 0 1.3.14 1.72.4.43.27.7.7.82 1.28l-1 .12c-.05-.3-.22-.53-.48-.7-.27-.16-.63-.24-1.07-.24-.5 0-.87.08-1.1.24-.24.15-.36.4-.36.7 0 .2.05.35.15.48.1.12.24.23.43.32.2.1.6.2 1.2.37.6.14 1 .28 1.27.42.26.12.46.26.6.4.15.17.27.34.36.55.08.2.12.43.12.7z" stroke="#000" stroke-opacity="0" fill="#fff"/><use xlink:href="#e" transform="matrix(1,0,0,1,110,949) translate(32.5 14.4)"/><path d="M279.77 782.1c-.76.08-1.36.23-1.97.53l-26.3 12.96c-1.44.67-2.42 1.9-2.72 3.48l-6.52 29.17c-.3 1.37-.08 2.73.68 3.94.08.15.15.22.3.37l18.2 23.34c.98 1.3 2.34 1.98 3.93 1.98h29.26c1.6 0 2.95-.68 3.94-1.97l18.18-23.33c1-1.3 1.37-2.8 1-4.4l-6.53-29.1c-.3-1.58-1.3-2.8-2.73-3.48l-26.3-12.97c-.84-.37-1.6-.6-2.43-.53z" stroke="#000" stroke-opacity="0" stroke-width="3.83" fill="#326ce5"/><path d="M279.76 780c-.8.08-1.44.24-2.08.56l-27.76 13.68c-1.52.72-2.56 2-2.88 3.68l-6.88 30.8c-.32 1.44-.08 2.88.72 4.16.08.16.16.24.32.4l19.2 24.64c1.04 1.36 2.48 2.08 4.16 2.08h30.88c1.68 0 3.12-.72 4.16-2.08l19.2-24.64c1.04-1.36 1.44-2.96 1.04-4.64l-6.88-30.72c-.32-1.68-1.36-2.96-2.88-3.68l-27.76-13.68c-.88-.4-1.68-.64-2.56-.56zm0 2.16c.88-.08 1.6.08 2.4.48l26.4 12.96c1.36.72 2.32 1.92 2.72 3.52l6.48 29.12c.32 1.6 0 3.04-.96 4.32l-18.24 23.36c-.96 1.28-2.32 2-3.92 2h-29.28c-1.6 0-2.96-.72-3.92-2l-18.24-23.36c-.08-.08-.16-.24-.24-.4-.8-1.2-1.04-2.48-.72-3.92l6.48-29.12c.4-1.6 1.28-2.8 2.72-3.52l26.4-12.96c.64-.32 1.2-.48 1.92-.48z" stroke="#000" stroke-opacity="0" stroke-width="3.83" fill="#fff"/><path d="M276.3 849.58c0 .64-.25 1.14-.72 1.5-.47.34-1.13.5-1.98.5-.82 0-1.46-.13-1.9-.4-.45-.3-.73-.72-.87-1.32l.97-.2c.1.37.3.64.58.82.3.17.7.25 1.22.25.56 0 .97-.1 1.22-.27.27-.17.4-.44.4-.8 0-.26-.1-.48-.27-.65-.18-.15-.47-.3-.87-.4l-.8-.22c-.62-.16-1.07-.33-1.34-.5-.27-.15-.47-.35-.62-.58-.15-.23-.23-.52-.23-.85 0-.62.2-1.1.63-1.4.44-.35 1.06-.5 1.9-.5.7 0 1.3.13 1.72.4.43.25.7.68.82 1.26l-1 .14c-.05-.3-.22-.54-.48-.7-.28-.16-.63-.24-1.08-.24-.5 0-.87.08-1.1.23-.24.16-.36.4-.36.7 0 .2.05.36.15.5.1.1.25.22.44.3.2.1.6.22 1.2.37s1 .3 1.27.43c.27.12.47.26.62.42.14.15.26.33.35.54.08.2.12.42.12.68zM280.48 851.46h-1.3l-2.4-6.82h1.17l1.46 4.44c.06.16.2.66.43 1.5l.2-.75.25-.74 1.5-4.46h1.17zM284.67 848.03c0 .9.14 1.58.42 2.02.26.43.68.65 1.24.65.4 0 .72-.1.98-.33.26-.22.43-.55.5-1l1.1.07c-.1.65-.36 1.18-.82 1.57-.45.4-1.03.6-1.73.6-.93 0-1.63-.3-2.12-.9-.48-.6-.73-1.5-.73-2.65 0-1.14.25-2.02.74-2.62.48-.6 1.18-.9 2.1-.9.68 0 1.24.18 1.68.54.45.36.73.85.84 1.5l-1.13.08c-.06-.38-.2-.68-.43-.9-.24-.23-.57-.33-1-.33-.57 0-1 .2-1.26.6-.26.4-.4 1.06-.4 2z" stroke="#000" stroke-opacity="0" fill="#fff"/><path d="M255.95 826.1h12.9v9.32h-12.9zM273.55 826.1h12.9v9.32h-12.9zM291.15 826.1h12.9v9.32h-12.9zM269.78 798.43h20.44v9.33h-20.44zM278.82 807.76v7.95h-16.4c-.66 0-1.18.56-1.18 1.22v9.16h2.33v-7.95H280c.65 0 1.17-.54 1.17-1.2v-9.17z" stroke="#000" stroke-opacity="0" stroke-width="3.77" fill="#fff"/><path d="M278.83 807.76v9.16c0 .67.52 1.2 1.18 1.2h16.4v7.96h2.36v-9.16c0-.66-.52-1.2-1.18-1.2h-16.42v-7.96z" stroke="#000" stroke-opacity="0" stroke-width="3.77" fill="#fff"/><path d="M278.8 807.76v9.16c0 .14 0 .3.06.42v8.74h2.35v-9.16c0-.15 0-.28-.07-.43v-8.74z" stroke="#000" stroke-opacity="0" stroke-width="3.77" fill="#fff"/><use xlink:href="#f" transform="matrix(1,0,0,1,210,868.9999999999998) translate(24.525 14.4)"/><path d="M389.77 782.1c-.76.08-1.36.23-1.97.53l-26.3 12.96c-1.44.67-2.42 1.9-2.72 3.48l-6.52 29.17c-.3 1.37-.08 2.73.68 3.94.08.15.15.22.3.37l18.2 23.34c.98 1.3 2.34 1.98 3.93 1.98h29.26c1.6 0 2.95-.68 3.94-1.97l18.18-23.33c1-1.3 1.37-2.8 1-4.4l-6.53-29.1c-.3-1.58-1.3-2.8-2.73-3.48l-26.3-12.97c-.84-.37-1.6-.6-2.43-.53z" stroke="#000" stroke-opacity="0" stroke-width="3.83" fill="#326ce5"/><path d="M389.76 780c-.8.08-1.44.24-2.08.56l-27.76 13.68c-1.52.72-2.56 2-2.88 3.68l-6.88 30.8c-.32 1.44-.08 2.88.72 4.16.08.16.16.24.32.4l19.2 24.64c1.04 1.36 2.48 2.08 4.16 2.08h30.88c1.68 0 3.12-.72 4.16-2.08l19.2-24.64c1.04-1.36 1.44-2.96 1.04-4.64l-6.88-30.72c-.32-1.68-1.36-2.96-2.88-3.68l-27.76-13.68c-.88-.4-1.68-.64-2.56-.56zm0 2.16c.88-.08 1.6.08 2.4.48l26.4 12.96c1.36.72 2.32 1.92 2.72 3.52l6.48 29.12c.32 1.6 0 3.04-.96 4.32l-18.24 23.36c-.96 1.28-2.32 2-3.92 2h-29.28c-1.6 0-2.96-.72-3.92-2l-18.24-23.36c-.08-.08-.16-.24-.24-.4-.8-1.2-1.04-2.48-.72-3.92l6.48-29.12c.4-1.6 1.28-2.8 2.72-3.52l26.4-12.96c.64-.32 1.2-.48 1.92-.48z" stroke="#000" stroke-opacity="0" stroke-width="3.83" fill="#fff"/><path d="M386.3 849.58c0 .64-.25 1.14-.72 1.5-.47.34-1.13.5-1.98.5-.82 0-1.46-.13-1.9-.4-.45-.3-.73-.72-.87-1.32l.97-.2c.1.37.3.64.58.82.3.17.7.25 1.22.25.56 0 .97-.1 1.22-.27.27-.17.4-.44.4-.8 0-.26-.1-.48-.27-.65-.18-.15-.47-.3-.87-.4l-.8-.22c-.62-.16-1.07-.33-1.34-.5-.27-.15-.47-.35-.62-.58-.15-.23-.23-.52-.23-.85 0-.62.2-1.1.63-1.4.44-.35 1.06-.5 1.9-.5.7 0 1.3.13 1.72.4.43.25.7.68.82 1.26l-1 .14c-.05-.3-.22-.54-.48-.7-.28-.16-.63-.24-1.08-.24-.5 0-.87.08-1.1.23-.24.16-.36.4-.36.7 0 .2.05.36.15.5.1.1.25.22.44.3.2.1.6.22 1.2.37s1 .3 1.27.43c.27.12.47.26.62.42.14.15.26.33.35.54.08.2.12.42.12.68zM390.48 851.46h-1.3l-2.4-6.82h1.17l1.46 4.44c.06.16.2.66.43 1.5l.2-.75.25-.74 1.5-4.46h1.17zM394.67 848.03c0 .9.14 1.58.42 2.02.26.43.68.65 1.24.65.4 0 .72-.1.98-.33.26-.22.43-.55.5-1l1.1.07c-.1.65-.36 1.18-.82 1.57-.45.4-1.03.6-1.73.6-.93 0-1.63-.3-2.12-.9-.48-.6-.73-1.5-.73-2.65 0-1.14.25-2.02.74-2.62.48-.6 1.18-.9 2.1-.9.68 0 1.24.18 1.68.54.45.36.73.85.84 1.5l-1.13.08c-.06-.38-.2-.68-.43-.9-.24-.23-.57-.33-1-.33-.57 0-1 .2-1.26.6-.26.4-.4 1.06-.4 2z" stroke="#000" stroke-opacity="0" fill="#fff"/><path d="M365.95 826.1h12.9v9.32h-12.9zM383.55 826.1h12.9v9.32h-12.9zM401.15 826.1h12.9v9.32h-12.9zM379.78 798.43h20.44v9.33h-20.44zM388.82 807.76v7.95h-16.4c-.66 0-1.18.56-1.18 1.22v9.16h2.33v-7.95H390c.65 0 1.17-.54 1.17-1.2v-9.17z" stroke="#000" stroke-opacity="0" stroke-width="3.77" fill="#fff"/><path d="M388.83 807.76v9.16c0 .67.52 1.2 1.18 1.2h16.4v7.96h2.36v-9.16c0-.66-.52-1.2-1.18-1.2h-16.42v-7.96z" stroke="#000" stroke-opacity="0" stroke-width="3.77" fill="#fff"/><path d="M388.8 807.76v9.16c0 .14 0 .3.06.42v8.74h2.35v-9.16c0-.15 0-.28-.07-.43v-8.74z" stroke="#000" stroke-opacity="0" stroke-width="3.77" fill="#fff"/><use xlink:href="#g" transform="matrix(1,0,0,1,320,868.9999999999998) translate(24.525 14.4)"/><path d="M509.77 782.1c-.76.08-1.36.23-1.97.53l-26.3 12.96c-1.44.67-2.42 1.9-2.72 3.48l-6.52 29.17c-.3 1.37-.08 2.73.68 3.94.08.15.15.22.3.37l18.2 23.34c.98 1.3 2.34 1.98 3.93 1.98h29.26c1.6 0 2.95-.68 3.94-1.97l18.18-23.33c1-1.3 1.37-2.8 1-4.4l-6.53-29.1c-.3-1.58-1.3-2.8-2.73-3.48l-26.3-12.97c-.84-.37-1.6-.6-2.43-.53z" stroke="#000" stroke-opacity="0" stroke-width="3.83" fill="#326ce5"/><path d="M509.76 780c-.8.08-1.44.24-2.08.56l-27.76 13.68c-1.52.72-2.56 2-2.88 3.68l-6.88 30.8c-.32 1.44-.08 2.88.72 4.16.08.16.16.24.32.4l19.2 24.64c1.04 1.36 2.48 2.08 4.16 2.08h30.88c1.68 0 3.12-.72 4.16-2.08l19.2-24.64c1.04-1.36 1.44-2.96 1.04-4.64l-6.88-30.72c-.32-1.68-1.36-2.96-2.88-3.68l-27.76-13.68c-.88-.4-1.68-.64-2.56-.56zm0 2.16c.88-.08 1.6.08 2.4.48l26.4 12.96c1.36.72 2.32 1.92 2.72 3.52l6.48 29.12c.32 1.6 0 3.04-.96 4.32l-18.24 23.36c-.96 1.28-2.32 2-3.92 2h-29.28c-1.6 0-2.96-.72-3.92-2l-18.24-23.36c-.08-.08-.16-.24-.24-.4-.8-1.2-1.04-2.48-.72-3.92l6.48-29.12c.4-1.6 1.28-2.8 2.72-3.52l26.4-12.96c.64-.32 1.2-.48 1.92-.48z" stroke="#000" stroke-opacity="0" stroke-width="3.83" fill="#fff"/><path d="M506.3 849.58c0 .64-.25 1.14-.72 1.5-.47.34-1.13.5-1.98.5-.82 0-1.46-.13-1.9-.4-.45-.3-.73-.72-.87-1.32l.97-.2c.1.37.3.64.58.82.3.17.7.25 1.22.25.56 0 .97-.1 1.22-.27.27-.17.4-.44.4-.8 0-.26-.1-.48-.27-.65-.18-.15-.47-.3-.87-.4l-.8-.22c-.62-.16-1.07-.33-1.34-.5-.27-.15-.47-.35-.62-.58-.15-.23-.23-.52-.23-.85 0-.62.2-1.1.63-1.4.44-.35 1.06-.5 1.9-.5.7 0 1.3.13 1.72.4.43.25.7.68.82 1.26l-1 .14c-.05-.3-.22-.54-.48-.7-.28-.16-.63-.24-1.08-.24-.5 0-.87.08-1.1.23-.24.16-.36.4-.36.7 0 .2.05.36.15.5.1.1.25.22.44.3.2.1.6.22 1.2.37s1 .3 1.27.43c.27.12.47.26.62.42.14.15.26.33.35.54.08.2.12.42.12.68zM510.48 851.46h-1.3l-2.4-6.82h1.17l1.46 4.44c.06.16.2.66.43 1.5l.2-.75.25-.74 1.5-4.46h1.17zM514.67 848.03c0 .9.14 1.58.42 2.02.26.43.68.65 1.24.65.4 0 .72-.1.98-.33.26-.22.43-.55.5-1l1.1.07c-.1.65-.36 1.18-.82 1.57-.45.4-1.03.6-1.73.6-.93 0-1.63-.3-2.12-.9-.48-.6-.73-1.5-.73-2.65 0-1.14.25-2.02.74-2.62.48-.6 1.18-.9 2.1-.9.68 0 1.24.18 1.68.54.45.36.73.85.84 1.5l-1.13.08c-.06-.38-.2-.68-.43-.9-.24-.23-.57-.33-1-.33-.57 0-1 .2-1.26.6-.26.4-.4 1.06-.4 2z" stroke="#000" stroke-opacity="0" fill="#fff"/><path d="M485.95 826.1h12.9v9.32h-12.9zM503.55 826.1h12.9v9.32h-12.9zM521.15 826.1h12.9v9.32h-12.9zM499.78 798.43h20.44v9.33h-20.44zM508.82 807.76v7.95h-16.4c-.66 0-1.18.56-1.18 1.22v9.16h2.33v-7.95H510c.65 0 1.17-.54 1.17-1.2v-9.17z" stroke="#000" stroke-opacity="0" stroke-width="3.77" fill="#fff"/><path d="M508.83 807.76v9.16c0 .67.52 1.2 1.18 1.2h16.4v7.96h2.36v-9.16c0-.66-.52-1.2-1.18-1.2h-16.42v-7.96z" stroke="#000" stroke-opacity="0" stroke-width="3.77" fill="#fff"/><path d="M508.8 807.76v9.16c0 .14 0 .3.06.42v8.74h2.35v-9.16c0-.15 0-.28-.07-.43v-8.74z" stroke="#000" stroke-opacity="0" stroke-width="3.77" fill="#fff"/><use xlink:href="#h" transform="matrix(1,0,0,1,440,868.9999999999998) translate(24.525 14.4)"/><path d="M279.77 942.1c-.76.1-1.36.24-1.97.54l-26.3 12.96c-1.44.68-2.42 1.9-2.72 3.5l-6.52 29.16c-.3 1.36-.08 2.73.68 3.94.08.15.15.23.3.38l18.2 23.34c.98 1.3 2.34 1.97 3.93 1.97h29.26c1.6 0 2.95-.7 3.94-1.98l18.18-23.34c1-1.3 1.37-2.8 1-4.4l-6.53-29.1c-.3-1.6-1.3-2.8-2.73-3.48l-26.3-12.96c-.84-.38-1.6-.6-2.43-.53z" stroke="#000" stroke-opacity="0" stroke-width="0" fill="#326ce5"/><path d="M279.76 940c-.8.08-1.44.24-2.08.56l-27.76 13.68c-1.52.72-2.56 2-2.88 3.68l-6.88 30.8c-.32 1.44-.08 2.88.72 4.16.08.16.16.24.32.4l19.2 24.64c1.04 1.36 2.48 2.08 4.16 2.08h30.88c1.68 0 3.12-.72 4.16-2.08l19.2-24.64c1.04-1.36 1.44-2.96 1.04-4.56l-6.88-30.8c-.32-1.68-1.36-2.96-2.88-3.68l-27.76-13.68c-.88-.4-1.68-.64-2.56-.56zm0 2.08c.88 0 1.6.16 2.4.56l26.4 12.96c1.36.72 2.32 1.92 2.72 3.52l6.48 29.12c.32 1.6 0 3.04-.96 4.32l-18.24 23.36c-.96 1.28-2.32 2-3.92 2h-29.28c-1.6 0-2.96-.72-3.92-2l-18.24-23.36c-.08-.08-.16-.24-.24-.4-.8-1.2-1.04-2.48-.72-3.92l6.48-29.12c.4-1.6 1.28-2.8 2.72-3.52l26.4-12.96c.64-.32 1.2-.48 1.92-.56z" stroke="#000" stroke-opacity="0" stroke-width="0" fill="#fff"/><path d="M263.94 968.4l16.06-4.8 16.06 4.8-16.06 4.8zM263.94 970.24v17.6l14.96 8.56.08-21.55zM296.06 970.24v17.6l-14.96 8.56-.08-21.55z" stroke="#000" stroke-opacity="0" fill="#fff"/><use xlink:href="#f" transform="matrix(1,0,0,1,210,1029) translate(24.525 14.4)"/><path d="M389.77 942.1c-.76.1-1.36.24-1.97.54l-26.3 12.96c-1.44.68-2.42 1.9-2.72 3.5l-6.52 29.16c-.3 1.36-.08 2.73.68 3.94.08.15.15.23.3.38l18.2 23.34c.98 1.3 2.34 1.97 3.93 1.97h29.26c1.6 0 2.95-.7 3.94-1.98l18.18-23.34c1-1.3 1.37-2.8 1-4.4l-6.53-29.1c-.3-1.6-1.3-2.8-2.73-3.48l-26.3-12.96c-.84-.38-1.6-.6-2.43-.53z" stroke="#000" stroke-opacity="0" stroke-width="0" fill="#326ce5"/><path d="M389.76 940c-.8.08-1.44.24-2.08.56l-27.76 13.68c-1.52.72-2.56 2-2.88 3.68l-6.88 30.8c-.32 1.44-.08 2.88.72 4.16.08.16.16.24.32.4l19.2 24.64c1.04 1.36 2.48 2.08 4.16 2.08h30.88c1.68 0 3.12-.72 4.16-2.08l19.2-24.64c1.04-1.36 1.44-2.96 1.04-4.56l-6.88-30.8c-.32-1.68-1.36-2.96-2.88-3.68l-27.76-13.68c-.88-.4-1.68-.64-2.56-.56zm0 2.08c.88 0 1.6.16 2.4.56l26.4 12.96c1.36.72 2.32 1.92 2.72 3.52l6.48 29.12c.32 1.6 0 3.04-.96 4.32l-18.24 23.36c-.96 1.28-2.32 2-3.92 2h-29.28c-1.6 0-2.96-.72-3.92-2l-18.24-23.36c-.08-.08-.16-.24-.24-.4-.8-1.2-1.04-2.48-.72-3.92l6.48-29.12c.4-1.6 1.28-2.8 2.72-3.52l26.4-12.96c.64-.32 1.2-.48 1.92-.56z" stroke="#000" stroke-opacity="0" stroke-width="0" fill="#fff"/><path d="M373.94 968.4l16.06-4.8 16.06 4.8-16.06 4.8zM373.94 970.24v17.6l14.96 8.56.08-21.55zM406.06 970.24v17.6l-14.96 8.56-.08-21.55z" stroke="#000" stroke-opacity="0" fill="#fff"/><use xlink:href="#g" transform="matrix(1,0,0,1,320,1029) translate(24.525 14.4)"/><path d="M509.77 942.1c-.76.1-1.36.24-1.97.54l-26.3 12.96c-1.44.68-2.42 1.9-2.72 3.5l-6.52 29.16c-.3 1.36-.08 2.73.68 3.94.08.15.15.23.3.38l18.2 23.34c.98 1.3 2.34 1.97 3.93 1.97h29.26c1.6 0 2.95-.7 3.94-1.98l18.18-23.34c1-1.3 1.37-2.8 1-4.4l-6.53-29.1c-.3-1.6-1.3-2.8-2.73-3.48l-26.3-12.96c-.84-.38-1.6-.6-2.43-.53z" stroke="#000" stroke-opacity="0" stroke-width="0" fill="#326ce5"/><path d="M509.76 940c-.8.08-1.44.24-2.08.56l-27.76 13.68c-1.52.72-2.56 2-2.88 3.68l-6.88 30.8c-.32 1.44-.08 2.88.72 4.16.08.16.16.24.32.4l19.2 24.64c1.04 1.36 2.48 2.08 4.16 2.08h30.88c1.68 0 3.12-.72 4.16-2.08l19.2-24.64c1.04-1.36 1.44-2.96 1.04-4.56l-6.88-30.8c-.32-1.68-1.36-2.96-2.88-3.68l-27.76-13.68c-.88-.4-1.68-.64-2.56-.56zm0 2.08c.88 0 1.6.16 2.4.56l26.4 12.96c1.36.72 2.32 1.92 2.72 3.52l6.48 29.12c.32 1.6 0 3.04-.96 4.32l-18.24 23.36c-.96 1.28-2.32 2-3.92 2h-29.28c-1.6 0-2.96-.72-3.92-2l-18.24-23.36c-.08-.08-.16-.24-.24-.4-.8-1.2-1.04-2.48-.72-3.92l6.48-29.12c.4-1.6 1.28-2.8 2.72-3.52l26.4-12.96c.64-.32 1.2-.48 1.92-.56z" stroke="#000" stroke-opacity="0" stroke-width="0" fill="#fff"/><path d="M493.94 968.4l16.06-4.8 16.06 4.8-16.06 4.8zM493.94 970.24v17.6l14.96 8.56.08-21.55zM526.06 970.24v17.6l-14.96 8.56-.08-21.55z" stroke="#000" stroke-opacity="0" fill="#fff"/><use xlink:href="#h" transform="matrix(1,0,0,1,440,1029) translate(24.525 14.4)"/><path d="M180 900h400v160H180z" fill="#fff" fill-opacity="0"/><path d="M192 900h8m8 0h8m8 0h8m8 0h8m8 0h8m8 0h8m8 0h8m8 0h8m8 0h8m8 0h8m8 0h8m8 0h8m8 0h8m8 0h8m8 0h8m8 0h8m8 0h8m8 0h8m8 0h8m8 0h8m8 0h8m8 0h8m8 0h8m8 0h8m8 0h4v4m0 8v8m0 8v8m0 8v8m0 8v8m0 8v8m0 8v8m0 8v8m0 8v8m0 8v8m0 8v4h-4m-8 0h-8m-8 0h-8m-8 0h-8m-8 0h-8m-8 0h-8m-8 0h-8m-8 0h-8m-8 0h-8m-8 0h-8m-8 0h-8m-8 0h-8m-8 0h-8m-8 0h-8m-8 0h-8m-8 0h-8m-8 0h-8m-8 0h-8m-8 0h-8m-8 0h-8m-8 0h-8m-8 0h-8m-8 0h-8m-8 0h-8m-8 0h-8m-8 0h-4v-4m0-8v-8m0-8v-8m0-8v-8m0-8v-8m0-8v-8m0-8v-8m0-8v-8m0-8v-8m0-8v-8m0-8v-4h4" stroke="#ccc" stroke-width="2" fill="none"/><path d="M510 860.5v63.13" stroke="#666" fill="none"/><path d="M510.5 860.5h-1v-.5h1z" fill="#666"/><path d="M510 938.4l-4.64-14.27h9.28z" stroke="#666" fill="#666"/><path d="M390 860.5v63.13" stroke="#666" fill="none"/><path d="M390.5 860.5h-1v-.5h1z" fill="#666"/><path d="M390 938.4l-4.64-14.27h9.28z" stroke="#666" fill="#666"/><path d="M280 860.5v63.13" stroke="#666" fill="none"/><path d="M280.5 860.5h-1v-.5h1z" fill="#666"/><path d="M280 938.4l-4.64-14.27h9.28z" stroke="#666" fill="#666"/><path d="M390 660.5V708c0 6.64-5.37 12-12 12h-86c-6.63 0-12 5.38-12 12v31.63" stroke="#666" fill="none"/><path d="M390.5 660.5h-1v-.5h1z" fill="#666"/><path d="M280 778.4l-4.64-14.27h9.28z" stroke="#666" fill="#666"/><path d="M390 660.5v103.13" stroke="#666" fill="none"/><path d="M390.5 660.5h-1v-.5h1z" fill="#666"/><path d="M390 778.4l-4.64-14.27h9.28z" stroke="#666" fill="#666"/><path d="M390 660.5V708c0 6.64 5.37 12 12 12h96c6.63 0 12 5.38 12 12v31.63" stroke="#666" fill="none"/><path d="M390.5 660.5h-1v-.5h1z" fill="#666"/><path d="M510 778.4l-4.64-14.27h9.28z" stroke="#666" fill="#666"/><path d="M389.77 462.1c-.76.08-1.36.23-1.97.53l-26.3 12.96c-1.44.67-2.42 1.9-2.72 3.48l-6.52 29.17c-.3 1.37-.08 2.73.68 3.94.08.15.15.22.3.37l18.2 23.34c.98 1.3 2.34 1.98 3.93 1.98h29.26c1.6 0 2.95-.68 3.94-1.97l18.18-23.33c1-1.3 1.37-2.8 1-4.4l-6.53-29.1c-.3-1.58-1.3-2.8-2.73-3.48l-26.3-12.97c-.84-.37-1.6-.6-2.43-.53z" stroke="#000" stroke-opacity="0" stroke-width="3.83" fill="#326ce5"/><path d="M389.76 460c-.8.08-1.44.24-2.08.56l-27.76 13.68c-1.52.72-2.56 2-2.88 3.68l-6.88 30.8c-.32 1.44-.08 2.88.72 4.16.08.16.16.24.32.4l19.2 24.64c1.04 1.36 2.48 2.08 4.16 2.08h30.88c1.68 0 3.12-.72 4.16-2.08l19.2-24.64c1.04-1.36 1.44-2.96 1.04-4.64l-6.88-30.72c-.32-1.68-1.36-2.96-2.88-3.68l-27.76-13.68c-.88-.4-1.68-.64-2.56-.56zm0 2.16c.88-.08 1.6.08 2.4.48l26.4 12.96c1.36.72 2.32 1.92 2.72 3.52l6.48 29.12c.32 1.6 0 3.04-.96 4.32l-18.24 23.36c-.96 1.28-2.32 2-3.92 2h-29.28c-1.6 0-2.96-.72-3.92-2l-18.24-23.36c-.08-.08-.16-.24-.24-.4-.8-1.2-1.04-2.48-.72-3.92l6.48-29.12c.4-1.6 1.28-2.8 2.72-3.52l26.4-12.96c.64-.32 1.2-.48 1.92-.48z" stroke="#000" stroke-opacity="0" stroke-width="3.83" fill="#fff"/><path d="M386.3 529.58c0 .64-.25 1.14-.72 1.5-.47.34-1.13.5-1.98.5-.82 0-1.46-.13-1.9-.4-.45-.3-.73-.72-.87-1.32l.97-.2c.1.37.3.64.58.82.3.17.7.25 1.22.25.56 0 .97-.1 1.22-.27.27-.17.4-.44.4-.8 0-.26-.1-.48-.27-.65-.18-.15-.47-.3-.87-.4l-.8-.22c-.62-.16-1.07-.33-1.34-.5-.27-.15-.47-.35-.62-.58-.15-.23-.23-.52-.23-.85 0-.62.2-1.1.63-1.4.44-.35 1.06-.5 1.9-.5.7 0 1.3.13 1.72.4.43.25.7.68.82 1.26l-1 .14c-.05-.3-.22-.54-.48-.7-.28-.16-.63-.24-1.08-.24-.5 0-.87.08-1.1.23-.24.16-.36.4-.36.7 0 .2.05.36.15.5.1.1.25.22.44.3.2.1.6.22 1.2.37s1 .3 1.27.43c.27.12.47.26.62.42.14.15.26.33.35.54.08.2.12.42.12.68zM390.48 531.46h-1.3l-2.4-6.82h1.17l1.46 4.44c.06.16.2.66.43 1.5l.2-.75.25-.74 1.5-4.46h1.17zM394.67 528.03c0 .9.14 1.58.42 2.02.26.43.68.65 1.24.65.4 0 .72-.1.98-.33.26-.22.43-.55.5-1l1.1.07c-.1.65-.36 1.18-.82 1.57-.45.4-1.03.6-1.73.6-.93 0-1.63-.3-2.12-.9-.48-.6-.73-1.5-.73-2.65 0-1.14.25-2.02.74-2.62.48-.6 1.18-.9 2.1-.9.68 0 1.24.18 1.68.54.45.36.73.85.84 1.5l-1.13.08c-.06-.38-.2-.68-.43-.9-.24-.23-.57-.33-1-.33-.57 0-1 .2-1.26.6-.26.4-.4 1.06-.4 2z" stroke="#000" stroke-opacity="0" fill="#fff"/><path d="M365.95 506.1h12.9v9.32h-12.9zM383.55 506.1h12.9v9.32h-12.9zM401.15 506.1h12.9v9.32h-12.9zM379.78 478.43h20.44v9.33h-20.44zM388.82 487.76v7.95h-16.4c-.66 0-1.18.56-1.18 1.22v9.16h2.33v-7.95H390c.65 0 1.17-.54 1.17-1.2v-9.17z" stroke="#000" stroke-opacity="0" stroke-width="3.77" fill="#fff"/><path d="M388.83 487.76v9.16c0 .67.52 1.2 1.18 1.2h16.4v7.96h2.36v-9.16c0-.66-.52-1.2-1.18-1.2h-16.42v-7.96z" stroke="#000" stroke-opacity="0" stroke-width="3.77" fill="#fff"/><path d="M388.8 487.76v9.16c0 .14 0 .3.06.42v8.74h2.35v-9.16c0-.15 0-.28-.07-.43v-8.74z" stroke="#000" stroke-opacity="0" stroke-width="3.77" fill="#fff"/><use xlink:href="#c" transform="matrix(1,0,0,1,320,549) translate(22.549999999999997 14.4)"/><path d="M390 540.5v23.13" stroke="#666" fill="none"/><path d="M390.5 540.5h-1v-.5h1z" fill="#666"/><path d="M390 578.4l-4.64-14.27h9.28z" stroke="#666" fill="#666"/><path d="M219.77 462.1c-.76.1-1.36.24-1.97.54l-26.3 12.96c-1.44.68-2.42 1.9-2.72 3.5l-6.52 29.16c-.3 1.37-.08 2.73.68 3.94.08.15.15.23.3.38l18.2 23.34c.98 1.3 2.34 1.97 3.93 1.97h29.26c1.6 0 2.95-.7 3.94-1.98l18.18-23.34c1-1.3 1.37-2.8 1-4.4l-6.53-29.1c-.3-1.6-1.3-2.8-2.73-3.48l-26.3-12.96c-.84-.38-1.6-.6-2.43-.53z" stroke="#000" stroke-opacity="0" stroke-width="3.83" fill="#326ce5"/><path d="M219.76 460c-.8.08-1.44.24-2.08.56l-27.76 13.68c-1.52.72-2.56 2-2.88 3.68l-6.88 30.8c-.32 1.44-.08 2.88.72 4.16.08.16.16.24.32.4l19.2 24.64c1.04 1.36 2.48 2.08 4.16 2.08h30.88c1.68 0 3.12-.72 4.16-2.08l19.2-24.64c1.04-1.36 1.44-2.96 1.04-4.56l-6.88-30.8c-.32-1.68-1.36-2.96-2.88-3.68l-27.76-13.68c-.88-.4-1.68-.64-2.56-.56zm0 2.16c.88-.08 1.6.08 2.4.48l26.4 12.96c1.36.72 2.32 1.92 2.72 3.52l6.48 29.12c.32 1.6 0 3.04-.96 4.32l-18.24 23.36c-.96 1.28-2.32 2-3.92 2h-29.28c-1.6 0-2.96-.72-3.92-2l-18.24-23.36c-.08-.08-.16-.24-.24-.4-.8-1.2-1.04-2.48-.72-3.92l6.48-29.12c.4-1.6 1.28-2.8 2.72-3.52l26.4-12.96c.64-.32 1.2-.48 1.92-.56z" stroke="#000" stroke-opacity="0" stroke-width="3.83" fill="#fff"/><path d="M211.18 479.36v3.4h2.35v-2.2h4.85v-2.42h-6c-.98 0-1.2.33-1.2 1.22zm11.9 1.2h9.38v-2.42h-9.4zm14.07 0h2.97v4.2h2.35v-5.4c0-.96-.5-1.2-1.2-1.22h-4.12zm-25.97 8.26v8.46h2.35v-9.67h-2.35zm28.94 2v8.47h2.35v-9.7h-2.35zm-26 10.7h9.4v-2.44h-9.4zm19.43 0h4.04v-2.44h-4.05z" stroke="#000" stroke-opacity="0" stroke-width="3.77" fill="#fff"/><path d="M204.36 485.8v4.4h2.35v-3.18h3.92v-2.43h-5.07c-.97 0-1.2.32-1.2 1.2zm10.98 1.22h9.35v-2.43h-9.36zm14.05 0h3.9v3.23h2.34v-4.44c0-.74-.3-1.23-1.15-1.2h-5.1zm-25.04 9.23v8.46h2.35v-9.66h-2.34zm28.94.05v8.46h2.34v-9.67h-2.34zm-25.06 11.66h9.38v-2.4h-9.38zm14.08 0h9.38v-2.4h-9.38z" stroke="#000" stroke-opacity="0" stroke-width="3.77" fill="#fff"/><path d="M197.54 513.25v-22.2l29.95.02c.92 0 1.33.8 1.33 1.38l-.03 20.75c-.03.8-.66 1.24-1.28 1.22h-28.8c-.52 0-1.2-.45-1.18-1.17z" stroke="#000" stroke-opacity="0" stroke-width="3.77" fill="#fff"/><path d="M212.95 493.16c-3.42 0-6.53.4-8.87 1.07-1.16.35-2.15.77-2.94 1.3-.77.54-1.46 1.32-1.46 2.4v9.6c0 1.08.7 1.84 1.46 2.38.8.56 1.78.97 2.94 1.3 2.34.7 5.45 1.1 8.87 1.1 3.43 0 6.54-.4 8.87-1.1 1.17-.33 2.15-.74 2.95-1.3.77-.53 1.46-1.3 1.46-2.36v-9.6c0-1.1-.7-1.87-1.46-2.4-.8-.54-1.78-.96-2.95-1.3-2.33-.68-5.44-1.08-8.87-1.08zm0 2.4c3.24 0 6.2.4 8.24 1 1.02.3 1.8.68 2.24.98.45.3.45.46.45.4 0-.1 0 .04-.46.37-.45.32-1.22.66-2.25.97-2.06.6-5 1-8.25 1-3.24 0-6.18-.4-8.23-1-1.03-.3-1.8-.65-2.26-.96-.45-.32-.45-.47-.45-.37 0 .07 0-.08.46-.4.46-.3 1.23-.66 2.26-.96 2.05-.6 5-1 8.23-1zM202 500.7c.65.33 1.26.67 2.08.92 2.34.7 5.45 1.1 8.87 1.1 3.43 0 6.54-.4 8.87-1.1.83-.25 1.44-.6 2.07-.92v6.86c0-.08 0 .07-.46.38-.45.3-1.22.67-2.25.96-2.06.6-5 1-8.25 1-3.24 0-6.18-.4-8.23-1-1.03-.3-1.8-.66-2.26-.96-.45-.3-.45-.46-.45-.38z" stroke="#000" stroke-opacity="0" stroke-width="3.77" fill="#326ce5"/><path d="M217.37 529.65c0 .64-.24 1.13-.7 1.48-.48.35-1.14.52-2 .52-.8 0-1.45-.14-1.9-.4-.44-.3-.72-.73-.86-1.32l.98-.2c.1.37.3.63.58.8.3.18.7.26 1.22.26.56 0 .97-.1 1.22-.27.27-.18.4-.45.4-.8 0-.27-.1-.5-.27-.66-.18-.16-.47-.3-.87-.4l-.8-.22c-.62-.17-1.07-.33-1.34-.5-.27-.16-.47-.36-.62-.6-.15-.2-.23-.5-.23-.83 0-.63.2-1.1.64-1.42.45-.33 1.07-.5 1.9-.5.72 0 1.3.14 1.73.4.43.27.7.7.82 1.28l-1 .12c-.05-.3-.22-.53-.48-.7-.27-.16-.62-.24-1.07-.24-.5 0-.87.08-1.1.24-.24.15-.36.4-.36.7 0 .2.05.35.15.48.1.12.23.23.42.32.2.1.6.2 1.2.37.6.14 1 .28 1.27.42.25.12.45.26.6.4.14.17.26.34.35.55.08.2.12.43.12.7zM221.2 531.52c-.35.1-.73.15-1.1.15-.88 0-1.33-.5-1.33-1.54v-4.55H218v-.82h.82l.32-1.53h.73v1.53h1.23v.82h-1.23v4.3c0 .33.05.56.16.7.1.13.28.2.54.2.15 0 .36-.04.64-.1zM227.1 529.65c0 .64-.24 1.13-.7 1.48-.48.35-1.14.52-2 .52-.8 0-1.45-.14-1.9-.4-.44-.3-.73-.73-.86-1.32l.97-.2c.1.37.3.63.6.8.28.18.7.26 1.2.26.57 0 .98-.1 1.23-.27.26-.18.4-.45.4-.8 0-.27-.1-.5-.27-.66-.18-.16-.47-.3-.87-.4l-.8-.22c-.63-.17-1.08-.33-1.35-.5-.27-.16-.47-.36-.62-.6-.15-.2-.23-.5-.23-.83 0-.63.2-1.1.64-1.42.44-.33 1.06-.5 1.9-.5.7 0 1.3.14 1.72.4.43.27.7.7.82 1.28l-1 .12c-.05-.3-.22-.53-.48-.7-.27-.16-.63-.24-1.07-.24-.5 0-.87.08-1.1.24-.24.15-.36.4-.36.7 0 .2.05.35.15.48.1.12.24.23.43.32.2.1.6.2 1.2.37.6.14 1 .28 1.27.42.26.12.46.26.6.4.15.17.27.34.36.55.08.2.12.43.12.7z" stroke="#000" stroke-opacity="0" fill="#fff"/><use xlink:href="#a" transform="matrix(1,0,0,1,150,549) translate(30 14.4)"/><path d="M719.77 942.1c-.76.1-1.36.24-1.97.54l-26.3 12.96c-1.44.68-2.42 1.9-2.72 3.5l-6.52 29.16c-.3 1.37-.08 2.73.68 3.94.08.15.15.23.3.38l18.2 23.34c.98 1.3 2.34 1.97 3.93 1.97h29.26c1.6 0 2.95-.7 3.94-1.98l18.18-23.34c1-1.3 1.37-2.8 1-4.4l-6.53-29.1c-.3-1.6-1.3-2.8-2.73-3.48l-26.3-12.96c-.84-.38-1.6-.6-2.43-.53z" stroke="#000" stroke-opacity="0" stroke-width="3.83" fill="#326ce5"/><path d="M719.76 940c-.8.08-1.44.24-2.08.56l-27.76 13.68c-1.52.72-2.56 2-2.88 3.68l-6.88 30.8c-.32 1.44-.08 2.88.72 4.16.08.16.16.24.32.4l19.2 24.64c1.04 1.36 2.48 2.08 4.16 2.08h30.88c1.68 0 3.12-.72 4.16-2.08l19.2-24.64c1.04-1.36 1.44-2.96 1.04-4.56l-6.88-30.8c-.32-1.68-1.36-2.96-2.88-3.68l-27.76-13.68c-.88-.4-1.68-.64-2.56-.56zm0 2.16c.88-.08 1.6.08 2.4.48l26.4 12.96c1.36.72 2.32 1.92 2.72 3.52l6.48 29.12c.32 1.6 0 3.04-.96 4.32l-18.24 23.36c-.96 1.28-2.32 2-3.92 2h-29.28c-1.6 0-2.96-.72-3.92-2l-18.24-23.36c-.08-.08-.16-.24-.24-.4-.8-1.2-1.04-2.48-.72-3.92l6.48-29.12c.4-1.6 1.28-2.8 2.72-3.52l26.4-12.96c.64-.32 1.2-.48 1.92-.56z" stroke="#000" stroke-opacity="0" stroke-width="3.83" fill="#fff"/><path d="M711.18 959.36v3.4h2.35v-2.2h4.85v-2.42h-6c-.98 0-1.2.33-1.2 1.22zm11.9 1.2h9.38v-2.42h-9.4zm14.07 0h2.97v4.2h2.35v-5.4c0-.96-.5-1.2-1.2-1.22h-4.12zm-25.97 8.26v8.46h2.35v-9.67h-2.35zm28.94 2v8.47h2.35v-9.7h-2.35zm-26 10.7h9.4v-2.44h-9.4zm19.43 0h4.04v-2.44h-4.05z" stroke="#000" stroke-opacity="0" stroke-width="3.77" fill="#fff"/><path d="M704.36 965.8v4.4h2.35v-3.18h3.92v-2.43h-5.07c-.97 0-1.2.32-1.2 1.2zm10.98 1.22h9.35v-2.43h-9.36zm14.05 0h3.9v3.23h2.34v-4.44c0-.74-.3-1.23-1.15-1.2h-5.1zm-25.04 9.23v8.46h2.35v-9.66h-2.34zm28.94.05v8.46h2.34v-9.67h-2.34zm-25.06 11.66h9.38v-2.4h-9.38zm14.08 0h9.38v-2.4h-9.38z" stroke="#000" stroke-opacity="0" stroke-width="3.77" fill="#fff"/><path d="M697.54 993.25v-22.2l29.95.02c.92 0 1.33.8 1.33 1.38l-.03 20.75c-.03.8-.66 1.24-1.28 1.22h-28.8c-.52 0-1.2-.45-1.18-1.17z" stroke="#000" stroke-opacity="0" stroke-width="3.77" fill="#fff"/><path d="M712.95 973.16c-3.42 0-6.53.4-8.87 1.07-1.16.35-2.15.77-2.94 1.3-.77.54-1.46 1.32-1.46 2.4v9.6c0 1.08.7 1.84 1.46 2.38.8.56 1.78.97 2.94 1.3 2.34.7 5.45 1.1 8.87 1.1 3.43 0 6.54-.4 8.87-1.1 1.17-.33 2.15-.74 2.95-1.3.77-.53 1.46-1.3 1.46-2.36v-9.6c0-1.1-.7-1.87-1.46-2.4-.8-.54-1.78-.96-2.95-1.3-2.33-.68-5.44-1.08-8.87-1.08zm0 2.4c3.24 0 6.2.4 8.24 1 1.02.3 1.8.68 2.24.98.45.3.45.46.45.4 0-.1 0 .04-.46.37-.45.32-1.22.66-2.25.97-2.06.6-5 1-8.25 1-3.24 0-6.18-.4-8.23-1-1.03-.3-1.8-.65-2.26-.96-.45-.32-.45-.47-.45-.37 0 .07 0-.08.46-.4.46-.3 1.23-.66 2.26-.96 2.05-.6 5-1 8.23-1zM702 980.7c.65.33 1.26.67 2.08.92 2.34.7 5.45 1.1 8.87 1.1 3.43 0 6.54-.4 8.87-1.1.83-.25 1.44-.6 2.07-.92v6.86c0-.08 0 .07-.46.38-.45.3-1.22.67-2.25.96-2.06.6-5 1-8.25 1-3.24 0-6.18-.4-8.23-1-1.03-.3-1.8-.66-2.26-.96-.45-.3-.45-.46-.45-.38z" stroke="#000" stroke-opacity="0" stroke-width="3.77" fill="#326ce5"/><path d="M717.37 1009.65c0 .64-.24 1.13-.7 1.48-.48.35-1.14.52-2 .52-.8 0-1.45-.14-1.9-.4-.44-.3-.72-.73-.86-1.32l.98-.2c.1.37.3.63.58.8.3.18.7.26 1.22.26.56 0 .97-.1 1.22-.27.27-.18.4-.45.4-.8 0-.27-.1-.5-.27-.66-.18-.16-.47-.3-.87-.4l-.8-.22c-.62-.17-1.07-.33-1.34-.5-.27-.16-.47-.36-.62-.6-.15-.2-.23-.5-.23-.83 0-.63.2-1.1.64-1.42.45-.33 1.07-.5 1.9-.5.72 0 1.3.14 1.73.4.43.27.7.7.82 1.28l-1 .12c-.05-.3-.22-.53-.48-.7-.27-.16-.62-.24-1.07-.24-.5 0-.87.08-1.1.24-.24.15-.36.4-.36.7 0 .2.05.35.15.48.1.12.23.23.42.32.2.1.6.2 1.2.37.6.14 1 .28 1.27.42.25.12.45.26.6.4.14.17.26.34.35.55.08.2.12.43.12.7zM721.2 1011.52c-.35.1-.73.15-1.1.15-.88 0-1.33-.5-1.33-1.54v-4.55H718v-.82h.82l.32-1.53h.73v1.53h1.23v.82h-1.23v4.3c0 .33.05.56.16.7.1.13.28.2.54.2.15 0 .36-.04.64-.1zM727.1 1009.65c0 .64-.24 1.13-.7 1.48-.48.35-1.14.52-2 .52-.8 0-1.45-.14-1.9-.4-.44-.3-.73-.73-.86-1.32l.97-.2c.1.37.3.63.6.8.28.18.7.26 1.2.26.57 0 .98-.1 1.23-.27.26-.18.4-.45.4-.8 0-.27-.1-.5-.27-.66-.18-.16-.47-.3-.87-.4l-.8-.22c-.63-.17-1.08-.33-1.35-.5-.27-.16-.47-.36-.62-.6-.15-.2-.23-.5-.23-.83 0-.63.2-1.1.64-1.42.44-.33 1.06-.5 1.9-.5.7 0 1.3.14 1.72.4.43.27.7.7.82 1.28l-1 .12c-.05-.3-.22-.53-.48-.7-.27-.16-.63-.24-1.07-.24-.5 0-.87.08-1.1.24-.24.15-.36.4-.36.7 0 .2.05.35.15.48.1.12.24.23.43.32.2.1.6.2 1.2.37.6.14 1 .28 1.27.42.26.12.46.26.6.4.15.17.27.34.36.55.08.2.12.43.12.7z" stroke="#000" stroke-opacity="0" fill="#fff"/><use xlink:href="#i" transform="matrix(1,0,0,1,650,1029) translate(13.124999999999993 14.4)"/><path d="M681.6 980.5h-13.03v-1h13.04z" fill="#666"/><path d="M682 980.5h-.4v-1h.62zM594.54 983.87L582.62 980l11.92-3.87z" fill="#666"/><path d="M594.54 976.65l-10.3 3.35 10.3 3.35v1.05L581 980l13.54-4.4z" fill="#666"/><use xlink:href="#j" transform="matrix(1,0,0,1,594.5354035594037,972) translate(0 10.666666666666668)"/><use xlink:href="#k" transform="matrix(1,0,0,1,594.5354035594037,972) translate(34.777777777777786 10.666666666666668)"/><path d="M719.77 786.6c-.76.06-1.36.2-1.97.52l-26.3 12.96c-1.44.68-2.42 1.9-2.72 3.48l-6.52 29.18c-.3 1.36-.08 2.72.68 3.94.08.15.15.22.3.38l18.2 23.34c.98 1.28 2.34 1.97 3.93 1.97h29.26c1.6 0 2.95-.7 3.94-1.97l18.18-23.34c1-1.3 1.37-2.8 1-4.4l-6.53-29.1c-.3-1.6-1.3-2.8-2.73-3.48l-26.3-12.96c-.84-.38-1.6-.6-2.43-.53z" stroke="#000" stroke-opacity="0" stroke-width="3.83" fill="#326ce5"/><path d="M719.76 784.48c-.8.08-1.44.24-2.08.56l-27.76 13.68c-1.52.72-2.56 2-2.88 3.68l-6.88 30.8c-.32 1.44-.08 2.88.72 4.16.08.16.16.24.32.4l19.2 24.64c1.04 1.36 2.48 2.08 4.16 2.08h30.88c1.68 0 3.12-.72 4.16-2.08l19.2-24.64c1.04-1.36 1.44-2.96 1.04-4.56l-6.88-30.8c-.32-1.68-1.36-2.96-2.88-3.68l-27.76-13.68c-.88-.4-1.68-.64-2.56-.56zm0 2.16c.88-.08 1.6.08 2.4.48l26.4 12.96c1.36.72 2.32 1.92 2.72 3.52l6.48 29.12c.32 1.6 0 3.04-.96 4.32l-18.24 23.36c-.96 1.28-2.32 2-3.92 2h-29.28c-1.6 0-2.96-.72-3.92-2l-18.24-23.36c-.08-.08-.16-.24-.24-.4-.8-1.2-1.04-2.48-.72-3.92l6.48-29.12c.4-1.6 1.28-2.8 2.72-3.52l26.4-12.96c.64-.32 1.2-.48 1.92-.56z" stroke="#000" stroke-opacity="0" stroke-width="3.83" fill="#fff"/><path d="M711.18 803.83v3.4h2.35v-2.18h4.85v-2.43h-6c-.98 0-1.2.32-1.2 1.2zm11.9 1.22h9.38v-2.43h-9.4zm14.07 0h2.97v4.18h2.35v-5.4c0-.96-.5-1.2-1.2-1.2h-4.12zm-25.97 8.25v8.46h2.35v-9.68h-2.35zm28.94 1.98v8.5h2.35v-9.7h-2.35zm-26 10.7h9.4v-2.42h-9.4zm19.43 0h4.04v-2.42h-4.05z" stroke="#000" stroke-opacity="0" stroke-width="3.77" fill="#fff"/><path d="M704.36 810.28v4.4h2.35v-3.18h3.92v-2.43h-5.07c-.97 0-1.2.33-1.2 1.2zm10.98 1.22h9.35v-2.43h-9.36zm14.05 0h3.9v3.22h2.34v-4.44c0-.74-.3-1.23-1.15-1.2h-5.1zm-25.04 9.23v8.46h2.35v-9.7h-2.34zm28.94.05v8.45h2.34v-9.67h-2.34zm-25.06 11.65h9.38v-2.4h-9.38zm14.08 0h9.38v-2.4h-9.38z" stroke="#000" stroke-opacity="0" stroke-width="3.77" fill="#fff"/><path d="M697.54 837.72v-22.2l29.95.02c.92 0 1.33.8 1.33 1.38l-.03 20.76c-.03.8-.66 1.24-1.28 1.2h-28.8c-.52 0-1.2-.43-1.18-1.16z" stroke="#000" stroke-opacity="0" stroke-width="3.77" fill="#fff"/><path d="M712.95 817.64c-3.42 0-6.53.4-8.87 1.07-1.16.35-2.15.77-2.94 1.3-.77.54-1.46 1.33-1.46 2.4v9.6c0 1.08.7 1.85 1.46 2.38.8.56 1.78.96 2.94 1.3 2.34.7 5.45 1.1 8.87 1.1 3.43 0 6.54-.4 8.87-1.1 1.17-.34 2.15-.74 2.95-1.3.77-.53 1.46-1.3 1.46-2.37v-9.6c0-1.07-.7-1.86-1.46-2.4-.8-.53-1.78-.95-2.95-1.3-2.33-.66-5.44-1.06-8.87-1.06zm0 2.4c3.24 0 6.2.4 8.24 1 1.02.3 1.8.67 2.24.98.45.3.45.46.45.38 0-.1 0 .06-.46.38-.45.3-1.22.66-2.25.96-2.06.6-5 1-8.25 1-3.24 0-6.18-.4-8.23-1-1.03-.3-1.8-.65-2.26-.96-.45-.32-.45-.47-.45-.38 0 .08 0-.08.46-.38s1.23-.67 2.26-.98c2.05-.6 5-1 8.23-1zM702 825.17c.65.32 1.26.67 2.08.92 2.34.7 5.45 1.1 8.87 1.1 3.43 0 6.54-.4 8.87-1.1.83-.25 1.44-.6 2.07-.92V832c0-.07 0 .1-.46.4-.45.3-1.22.66-2.25.95-2.06.6-5 1.02-8.25 1.02-3.24 0-6.18-.4-8.23-1.02-1.03-.3-1.8-.65-2.26-.96-.45-.3-.45-.47-.45-.4z" stroke="#000" stroke-opacity="0" stroke-width="3.77" fill="#326ce5"/><path d="M717.37 854.12c0 .64-.24 1.14-.7 1.5-.48.33-1.14.5-2 .5-.8 0-1.45-.13-1.9-.4-.44-.3-.72-.73-.86-1.32l.98-.2c.1.37.3.64.58.82.3.16.7.25 1.22.25.56 0 .97-.1 1.22-.27.27-.17.4-.44.4-.8 0-.26-.1-.48-.27-.65-.18-.16-.47-.3-.87-.4l-.8-.23c-.62-.17-1.07-.33-1.34-.5-.27-.15-.47-.35-.62-.58-.15-.23-.23-.52-.23-.85 0-.63.2-1.1.64-1.43.45-.33 1.07-.5 1.9-.5.72 0 1.3.14 1.73.4.43.27.7.7.82 1.28l-1 .13c-.05-.3-.22-.54-.48-.7-.27-.16-.62-.24-1.07-.24-.5 0-.87.08-1.1.23-.24.16-.36.4-.36.7 0 .2.05.36.15.5.1.1.23.22.42.3.2.1.6.22 1.2.37s1 .3 1.27.42c.25.13.45.27.6.43.14.14.26.32.35.53.08.2.12.43.12.7zM721.2 856c-.35.1-.73.15-1.1.15-.88 0-1.33-.52-1.33-1.55v-4.55H718v-.82h.82l.32-1.53h.73v1.53h1.23v.82h-1.23v4.3c0 .33.05.56.16.7.1.13.28.2.54.2.15 0 .36-.03.64-.1zM727.1 854.12c0 .64-.24 1.14-.7 1.5-.48.33-1.14.5-2 .5-.8 0-1.45-.13-1.9-.4-.44-.3-.73-.73-.86-1.32l.97-.2c.1.37.3.64.6.82.28.16.7.25 1.2.25.57 0 .98-.1 1.23-.27.26-.17.4-.44.4-.8 0-.26-.1-.48-.27-.65-.18-.16-.47-.3-.87-.4l-.8-.23c-.63-.17-1.08-.33-1.35-.5-.27-.15-.47-.35-.62-.58-.15-.23-.23-.52-.23-.85 0-.63.2-1.1.64-1.43.44-.33 1.06-.5 1.9-.5.7 0 1.3.14 1.72.4.43.27.7.7.82 1.28l-1 .13c-.05-.3-.22-.54-.48-.7-.27-.16-.63-.24-1.07-.24-.5 0-.87.08-1.1.23-.24.16-.36.4-.36.7 0 .2.05.36.15.5.1.1.24.22.43.3.2.1.6.22 1.2.37s1 .3 1.27.42c.26.13.46.27.6.43.15.14.27.32.36.53.08.2.12.43.12.7z" stroke="#000" stroke-opacity="0" fill="#fff"/><use xlink:href="#l" transform="matrix(1,0,0,1,650,873.4750411046157) translate(28.549999999999997 14.4)"/><g filter="url(#m)"><path d="M365 42c0-1.1.9-2 2-2h84c1.1 0 2 .9 2 2v104c0 1.1-.9 2-2 2h-84c-1.1 0-2-.9-2-2z" fill="#fff"/><path d="M433 87.9c1.65 0 3.07-.44 4.25-1.35 1.17-.9 1.75-2 1.75-3.28V60.1c0-1.3-.58-2.38-1.75-3.3-1.18-.9-2.6-1.35-4.25-1.35h-48c-1.65 0-3.07.46-4.25 1.36-1.17.92-1.75 2-1.75 3.3v23.17c0 1.28.58 2.38 1.75 3.28 1.18.9 2.6 1.36 4.25 1.36h-12v4.65h72V87.9zm-48-27.8h48v23.17h-48z" fill="#757575"/><use xlink:href="#n" transform="matrix(1,0,0,1,365,101.00000000000765) translate(10.11809765625 28.05751953125)"/><use xlink:href="#o" transform="matrix(1,0,0,1,365,101.00000000000765) translate(35.861572265625 28.05751953125)"/></g><g filter="url(#m)"><path d="M616 42c0-1.1.9-2 2-2h84c1.1 0 2 .9 2 2v104c0 1.1-.9 2-2 2h-84c-1.1 0-2-.9-2-2z" fill="#fff"/><path d="M687 50.82h-54c-1.66 0-3.07.45-4.24 1.36-1.18.9-1.76 2-1.76 3.27v27.82c0 1.28.58 2.38 1.76 3.28 1.17.9 2.58 1.36 4.24 1.36h21v4.65h-6v4.63h24v-4.63h-6V87.9h21c1.66 0 3.07-.45 4.24-1.35 1.18-.9 1.76-2 1.76-3.28V55.45c0-1.28-.58-2.37-1.76-3.27-1.17-.9-2.58-1.36-4.24-1.36zm0 32.45h-54V55.45h54z" fill="#757575"/><use xlink:href="#p" transform="matrix(1,0,0,1,616,101.00000000000765) translate(22.963791992187502 20.24462890625)"/><use xlink:href="#q" transform="matrix(1,0,0,1,616,101.00000000000765) translate(14.477039550781253 35.87041015625)"/><use xlink:href="#r" transform="matrix(1,0,0,1,616,101.00000000000765) translate(61.250211425781245 35.87041015625)"/></g><g filter="url(#m)"><path d="M142 42c0-1.1.9-2 2-2h84c1.1 0 2 .9 2 2v104c0 1.1-.9 2-2 2h-84c-1.1 0-2-.9-2-2z" fill="#fff"/><path d="M198 71.68c2.5 0 4.6-.68 6.36-2.04 1.76-1.35 2.64-3 2.64-4.9 0-1.93-.88-3.57-2.64-4.93-1.75-1.35-3.87-2.03-6.36-2.03-2.5 0-4.6.68-6.36 2.04-1.76 1.37-2.64 3-2.64 4.93 0 1.92.88 3.56 2.64 4.9C193.4 71 195.5 71.7 198 71.7zm-24 0c2.5 0 4.6-.68 6.36-2.04 1.76-1.35 2.64-3 2.64-4.9 0-1.93-.88-3.57-2.64-4.93-1.75-1.35-3.87-2.03-6.36-2.03-2.5 0-4.6.68-6.36 2.04-1.76 1.37-2.64 3-2.64 4.93 0 1.92.88 3.56 2.64 4.9C169.4 71 171.5 71.7 174 71.7zm0 4.64c-7 0-21 2.7-21 8.1v5.8h42v-5.8c0-5.4-14-8.1-21-8.1zm24 0c-.87 0-1.86.05-2.9.1 3.47 1.96 5.9 4.58 5.9 8v5.8h18v-5.8c0-5.4-14-8.1-21-8.1zm0 0" fill="#757575"/><use xlink:href="#p" transform="matrix(1,0,0,1,142,101.00000000004897) translate(22.963791992187502 12.431738281250002)"/><use xlink:href="#s" transform="matrix(1,0,0,1,142,101.00000000004897) translate(22.263887207031253 28.05751953125)"/><use xlink:href="#t" transform="matrix(1,0,0,1,142,101.00000000004897) translate(3.815699218749998 43.68330078125)"/><use xlink:href="#u" transform="matrix(1,0,0,1,142,101.00000000004897) translate(50.3089091796875 43.68330078125)"/></g><path d="M719.77 502.1c-.76.08-1.36.23-1.97.53l-26.3 12.96c-1.44.67-2.42 1.9-2.72 3.48l-6.52 29.17c-.3 1.37-.08 2.73.68 3.94.08.15.15.22.3.37l18.2 23.34c.98 1.3 2.34 1.98 3.93 1.98h29.26c1.6 0 2.95-.68 3.94-1.97l18.18-23.33c1-1.3 1.37-2.8 1-4.4l-6.53-29.1c-.3-1.58-1.3-2.8-2.73-3.48l-26.3-12.97c-.84-.37-1.6-.6-2.43-.53z" stroke="#000" stroke-opacity="0" stroke-width="3.83" fill="#326ce5"/><path d="M719.76 500c-.8.08-1.44.24-2.08.56l-27.76 13.68c-1.52.72-2.56 2-2.88 3.68l-6.88 30.8c-.32 1.44-.08 2.88.72 4.16.08.16.16.24.32.4l19.2 24.64c1.04 1.36 2.48 2.08 4.16 2.08h30.88c1.68 0 3.12-.72 4.16-2.08l19.2-24.64c1.04-1.36 1.44-2.96 1.04-4.64l-6.88-30.72c-.32-1.68-1.36-2.96-2.88-3.68l-27.76-13.68c-.88-.4-1.68-.64-2.56-.56zm0 2.16c.88-.08 1.6.08 2.4.48l26.4 12.96c1.36.72 2.32 1.92 2.72 3.52l6.48 29.12c.32 1.6 0 3.04-.96 4.32l-18.24 23.36c-.96 1.28-2.32 2-3.92 2h-29.28c-1.6 0-2.96-.72-3.92-2l-18.24-23.36c-.08-.08-.16-.24-.24-.4-.8-1.2-1.04-2.48-.72-3.92l6.48-29.12c.4-1.6 1.28-2.8 2.72-3.52l26.4-12.96c.64-.32 1.2-.48 1.92-.48z" stroke="#000" stroke-opacity="0" stroke-width="3.83" fill="#fff"/><path d="M716.3 569.58c0 .64-.25 1.14-.72 1.5-.47.34-1.13.5-1.98.5-.82 0-1.46-.13-1.9-.4-.45-.3-.73-.72-.87-1.32l.97-.2c.1.37.3.64.58.82.3.17.7.25 1.22.25.56 0 .97-.1 1.22-.27.27-.17.4-.44.4-.8 0-.26-.1-.48-.27-.65-.18-.15-.47-.3-.87-.4l-.8-.22c-.62-.16-1.07-.33-1.34-.5-.27-.15-.47-.35-.62-.58-.15-.23-.23-.52-.23-.85 0-.62.2-1.1.63-1.4.44-.35 1.06-.5 1.9-.5.7 0 1.3.13 1.72.4.43.25.7.68.82 1.26l-1 .14c-.05-.3-.22-.54-.48-.7-.28-.16-.63-.24-1.08-.24-.5 0-.87.08-1.1.23-.24.16-.36.4-.36.7 0 .2.05.36.15.5.1.1.25.22.44.3.2.1.6.22 1.2.37s1 .3 1.27.43c.27.12.47.26.62.42.14.15.26.33.35.54.08.2.12.42.12.68zM720.48 571.46h-1.3l-2.4-6.82h1.17l1.46 4.44c.06.16.2.66.43 1.5l.2-.75.25-.74 1.5-4.46h1.17zM724.67 568.03c0 .9.14 1.58.42 2.02.26.43.68.65 1.24.65.4 0 .72-.1.98-.33.26-.22.43-.55.5-1l1.1.07c-.1.65-.36 1.18-.82 1.57-.45.4-1.03.6-1.73.6-.93 0-1.63-.3-2.12-.9-.48-.6-.73-1.5-.73-2.65 0-1.14.25-2.02.74-2.62.48-.6 1.18-.9 2.1-.9.68 0 1.24.18 1.68.54.45.36.73.85.84 1.5l-1.13.08c-.06-.38-.2-.68-.43-.9-.24-.23-.57-.33-1-.33-.57 0-1 .2-1.26.6-.26.4-.4 1.06-.4 2z" stroke="#000" stroke-opacity="0" fill="#fff"/><path d="M695.95 546.1h12.9v9.32h-12.9zM713.55 546.1h12.9v9.32h-12.9zM731.15 546.1h12.9v9.32h-12.9zM709.78 518.43h20.44v9.33h-20.44zM718.82 527.76v7.95h-16.4c-.66 0-1.18.56-1.18 1.22v9.16h2.33v-7.95H720c.65 0 1.17-.54 1.17-1.2v-9.17z" stroke="#000" stroke-opacity="0" stroke-width="3.77" fill="#fff"/><path d="M718.83 527.76v9.16c0 .67.52 1.2 1.18 1.2h16.4v7.96h2.36v-9.16c0-.66-.52-1.2-1.18-1.2h-16.42v-7.96z" stroke="#000" stroke-opacity="0" stroke-width="3.77" fill="#fff"/><path d="M718.8 527.76v9.16c0 .14 0 .3.06.42v8.74h2.35v-9.16c0-.15 0-.28-.07-.43v-8.74z" stroke="#000" stroke-opacity="0" stroke-width="3.77" fill="#fff"/><use xlink:href="#d" transform="matrix(1,0,0,1,650,589) translate(17.624999999999993 14.4)"/><path d="M720 580.5v45.37" stroke="#666" fill="none"/><path d="M720.5 580.5h-1v-.5h1z" fill="#666"/><path d="M720 640.64l-4.64-14.27h9.28z" stroke="#666" fill="#666"/><path d="M430.3 631.37H435m4.74 0h9.47m4.73 0h9.48m4.73 0h9.47m4.74 0h9.47m4.74 0h9.46m4.74 0h9.47m4.73 0h9.47m4.74 0h4.75l3.1-.4 2.9-1.2m4.4-4.4l1.2-2.88.4-3.13v-5.6m0-5.63V596.9m0-5.6v-11.23m0-5.6v-11.24m0-5.62V552l.4-3.1 1.2-2.9m4.4-4.4l2.88-1.2 3.12-.4h4.65m4.66 0h9.3m4.67 0h9.3m4.67 0h9.3m4.66 0h9.32m4.65 0h9.3m4.67 0h9.3m4.67 0h4.65" stroke="#666" fill="none"/><path d="M430.3 631.87h-.77l.26-.5.03-.5h.47z" fill="#666"/><path d="M680.5 540l-14.28 4.64v-9.28z" stroke="#666" fill="#666"/><path d="M180 859.52v-8.5l.4-3.12 1.2-2.87m4.4-4.4l2.9-1.2 3.1-.4h4.33m4.34 0h8.66m4.34 0H218l3.1-.42 2.9-1.18m4.4-4.4l1.2-2.9.4-3.1v-5.12m0-5.1v-10.24m0-5.12V791.2m0-5.1v-10.24m0-5.12V760.5m0-5.1v-10.24m0-5.1V729.8m0-5.12v-10.23m0-5.12v-5.1l.4-3.13 1.2-2.87m4.4-4.4l2.9-1.2 3.1-.4h5.02m5.02 0h10.03m5.02 0h10.02m5.02 0h10.04m5 0h10.05m5.02 0h10.03m5.02 0h10.03m5.02 0h10.04m5 0h10.04m5.02 0h10.03m5 0h10.04m5.02 0h10.04m5 0h10.05m5.02 0h10.03m5.02 0h10.03m5.02 0h10.04m5.02 0h10.04m5.02 0h10.03m5.03 0h10.03m5.02 0H528l3.1-.42 2.9-1.2m4.4-4.4l1.2-2.88.4-3.1v-4.76m0-4.76v-9.5m0-4.75V647m0-4.76v-9.5m0-4.75v-9.5m0-4.76v-9.5m0-4.74V590m0-4.75v-9.5m0-4.75v-9.5m0-4.75V552l.4-3.1 1.2-2.9m4.4-4.4l2.9-1.2 3.1-.4h4.74m4.74 0h9.47m4.74 0h9.47m4.74 0h9.48m4.74 0h9.48m4.74 0h9.48m4.73 0h9.48m4.74 0h9.48m4.74 0h4.72" stroke="#666" fill="none"/><path d="M180.5 860.06l-.74-.06-.26.04v-.53h1z" fill="#666"/><path d="M680.5 540l-14.28 4.64v-9.28z" stroke="#666" fill="#666"/><path d="M720 722.74v45.37" stroke="#666" fill="none"/><path d="M720.5 722.75h-1v-.5h1z" fill="#666"/><path d="M720 782.88l-4.64-14.27h9.28z" stroke="#666" fill="#666"/><path d="M300 360.5V398c0 6.64-5.37 12-12 12h-56c-6.63 0-12 5.38-12 12v21.63" stroke="#666" fill="none"/><path d="M300.5 360.5h-1v-.5h1z" fill="#666"/><path d="M220 458.4l-4.64-14.27h9.28z" stroke="#666" fill="#666"/><path d="M258.4 500h77.32" stroke="#666" fill="none"/><path d="M258.4 500.5h-.4l-.22-1h.62z" fill="#666"/><path d="M350.5 500l-14.28 4.64v-9.28z" stroke="#666" fill="#666"/><path d="M540 360.5V418c0 6.64 5.37 12 12 12h156c6.63 0 12 5.38 12 12v41.63" stroke="#666" fill="none"/><path d="M540.5 360.5h-1v-.5h1z" fill="#666"/><path d="M720 498.4l-4.64-14.27h9.28z" stroke="#666" fill="#666"/><path d="M540 360.5V488c0 6.63-5.37 12-12 12h-83.7" stroke="#666" fill="none"/><path d="M540.5 360.5h-1v-.5h1z" fill="#666"/><path d="M429.52 500l14.27-4.64v9.28z" stroke="#666" fill="#666"/><path d="M186 148.5V202c0 6.64 5.37 12 12 12h90c6.63 0 12 5.38 12 12v37.63" stroke="#666" fill="none"/><path d="M186.5 148.5h-1v-.5h1z" fill="#666"/><path d="M300 278.4l-4.64-14.27h9.28z" stroke="#666" fill="#666"/><path d="M186 148.5V202c0 6.64 5.37 12 12 12h330c6.63 0 12 5.38 12 12v37.63" stroke="#666" fill="none"/><path d="M186.5 148.5h-1v-.5h1z" fill="#666"/><path d="M540 278.4l-4.64-14.27h9.28z" stroke="#666" fill="#666"/><path d="M409 148.5V202c0 6.64-5.37 12-12 12h-85c-6.63 0-12 5.38-12 12v37.63" stroke="#666" fill="none"/><path d="M409.5 148.5h-1v-.5h1z" fill="#666"/><path d="M300 278.4l-4.64-14.27h9.28z" stroke="#666" fill="#666"/><path d="M660 148.5V202c0 6.64-5.37 12-12 12h-96c-6.63 0-12 5.38-12 12v37.63" stroke="#666" fill="none"/><path d="M660.5 148.5h-1v-.5h1z" fill="#666"/><path d="M540 278.4l-4.64-14.27h9.28z" stroke="#666" fill="#666"/><defs><path d="M100-194c63 0 86 42 84 106H49c0 40 14 67 53 68 26 1 43-12 49-29l28 8c-11 28-37 45-77 45C44 4 14-33 15-96c1-61 26-98 85-98zm52 81c6-60-76-77-97-28-3 7-6 17-6 28h103" id="v"/><path d="M85-194c31 0 48 13 60 33l-1-100h32l1 261h-30c-2-10 0-23-3-31C134-8 116 4 85 4 32 4 16-35 15-94c0-66 23-100 70-100zm9 24c-40 0-46 34-46 75 0 40 6 74 45 74 42 0 51-32 51-76 0-42-9-74-50-73" id="w"/><path d="M177-190C167-65 218 103 67 71c-23-6-38-20-44-43l32-5c15 47 100 32 89-28v-30C133-14 115 1 83 1 29 1 15-40 15-95c0-56 16-97 71-98 29-1 48 16 59 35 1-10 0-23 2-32h30zM94-22c36 0 50-32 50-73 0-42-14-75-50-75-39 0-46 34-46 75s6 73 46 73" id="x"/><path d="M117-194c89-4 53 116 60 194h-32v-121c0-31-8-49-39-48C34-167 62-67 57 0H25l-1-190h30c1 10-1 24 2 32 11-22 29-35 61-36" id="y"/><path d="M100-194c62-1 85 37 85 99 1 63-27 99-86 99S16-35 15-95c0-66 28-99 85-99zM99-20c44 1 53-31 53-75 0-43-8-75-51-75s-53 32-53 75 10 74 51 75" id="z"/><g id="a"><use transform="matrix(0.05,0,0,0.05,0,0)" xlink:href="#v"/><use transform="matrix(0.05,0,0,0.05,10,0)" xlink:href="#w"/><use transform="matrix(0.05,0,0,0.05,20,0)" xlink:href="#x"/><use transform="matrix(0.05,0,0,0.05,30,0)" xlink:href="#v"/><use transform="matrix(0.05,0,0,0.05,40,0)" xlink:href="#y"/><use transform="matrix(0.05,0,0,0.05,50,0)" xlink:href="#z"/><use transform="matrix(0.05,0,0,0.05,60,0)" xlink:href="#w"/><use transform="matrix(0.05,0,0,0.05,70,0)" xlink:href="#v"/></g><path d="M141-36C126-15 110 5 73 4 37 3 15-17 15-53c-1-64 63-63 125-63 3-35-9-54-41-54-24 1-41 7-42 31l-33-3c5-37 33-52 76-52 45 0 72 20 72 64v82c-1 20 7 32 28 27v20c-31 9-61-2-59-35zM48-53c0 20 12 33 32 33 41-3 63-29 60-74-43 2-92-5-92 41" id="A"/><path d="M59-47c-2 24 18 29 38 22v24C64 9 27 4 27-40v-127H5v-23h24l9-43h21v43h35v23H59v120" id="B"/><path d="M16-82v-28h88v28H16" id="C"/><path d="M115-194c55 1 70 41 70 98S169 2 115 4C84 4 66-9 55-30l1 105H24l-1-265h31l2 30c10-21 28-34 59-34zm-8 174c40 0 45-34 45-75s-6-73-45-74c-42 0-51 32-51 76 0 43 10 73 51 73" id="D"/><path d="M114-163C36-179 61-72 57 0H25l-1-190h30c1 12-1 29 2 39 6-27 23-49 58-41v29" id="E"/><path d="M141 0L90-78 38 0H4l68-98-65-92h35l48 74 47-74h35l-64 92 68 98h-35" id="F"/><path d="M179-190L93 31C79 59 56 82 12 73V49c39 6 53-20 64-50L1-190h34L92-34l54-156h33" id="G"/><g id="b"><use transform="matrix(0.05,0,0,0.05,0,0)" xlink:href="#w"/><use transform="matrix(0.05,0,0,0.05,10,0)" xlink:href="#A"/><use transform="matrix(0.05,0,0,0.05,20,0)" xlink:href="#y"/><use transform="matrix(0.05,0,0,0.05,30,0)" xlink:href="#B"/><use transform="matrix(0.05,0,0,0.05,35,0)" xlink:href="#v"/><use transform="matrix(0.05,0,0,0.05,45,0)" xlink:href="#C"/><use transform="matrix(0.05,0,0,0.05,50.95,0)" xlink:href="#D"/><use transform="matrix(0.05,0,0,0.05,60.95,0)" xlink:href="#E"/><use transform="matrix(0.05,0,0,0.05,66.9,0)" xlink:href="#z"/><use transform="matrix(0.05,0,0,0.05,76.9,0)" xlink:href="#F"/><use transform="matrix(0.05,0,0,0.05,85.9,0)" xlink:href="#G"/></g><path d="M210-169c-67 3-38 105-44 169h-31v-121c0-29-5-50-35-48C34-165 62-65 56 0H25l-1-190h30c1 10-1 24 2 32 10-44 99-50 107 0 11-21 27-35 58-36 85-2 47 119 55 194h-31v-121c0-29-5-49-35-48" id="H"/><path d="M135-143c-3-34-86-38-87 0 15 53 115 12 119 90S17 21 10-45l28-5c4 36 97 45 98 0-10-56-113-15-118-90-4-57 82-63 122-42 12 7 21 19 24 35" id="I"/><g id="c"><use transform="matrix(0.05,0,0,0.05,0,0)" xlink:href="#H"/><use transform="matrix(0.05,0,0,0.05,14.950000000000001,0)" xlink:href="#A"/><use transform="matrix(0.05,0,0,0.05,24.950000000000003,0)" xlink:href="#I"/><use transform="matrix(0.05,0,0,0.05,33.95,0)" xlink:href="#B"/><use transform="matrix(0.05,0,0,0.05,38.95,0)" xlink:href="#v"/><use transform="matrix(0.05,0,0,0.05,48.95,0)" xlink:href="#E"/><use transform="matrix(0.05,0,0,0.05,54.900000000000006,0)" xlink:href="#y"/><use transform="matrix(0.05,0,0,0.05,64.9,0)" xlink:href="#z"/><use transform="matrix(0.05,0,0,0.05,74.9,0)" xlink:href="#w"/><use transform="matrix(0.05,0,0,0.05,84.9,0)" xlink:href="#v"/></g><path d="M115-194c53 0 69 39 70 98 0 66-23 100-70 100C84 3 66-7 56-30L54 0H23l1-261h32v101c10-23 28-34 59-34zm-8 174c40 0 45-34 45-75 0-40-5-75-45-74-42 0-51 32-51 76 0 43 10 73 51 73" id="J"/><path d="M24-231v-30h32v30H24zM24 0v-190h32V0H24" id="K"/><path d="M108 0H70L1-190h34L89-25l56-165h34" id="L"/><g id="d"><use transform="matrix(0.05,0,0,0.05,0,0)" xlink:href="#A"/><use transform="matrix(0.05,0,0,0.05,10,0)" xlink:href="#H"/><use transform="matrix(0.05,0,0,0.05,24.950000000000003,0)" xlink:href="#J"/><use transform="matrix(0.05,0,0,0.05,34.95,0)" xlink:href="#A"/><use transform="matrix(0.05,0,0,0.05,44.95,0)" xlink:href="#E"/><use transform="matrix(0.05,0,0,0.05,50.900000000000006,0)" xlink:href="#K"/><use transform="matrix(0.05,0,0,0.05,54.85,0)" xlink:href="#I"/><use transform="matrix(0.05,0,0,0.05,63.85,0)" xlink:href="#v"/><use transform="matrix(0.05,0,0,0.05,73.85000000000001,0)" xlink:href="#E"/><use transform="matrix(0.05,0,0,0.05,79.80000000000001,0)" xlink:href="#L"/><use transform="matrix(0.05,0,0,0.05,88.80000000000001,0)" xlink:href="#v"/><use transform="matrix(0.05,0,0,0.05,98.80000000000001,0)" xlink:href="#E"/></g><g id="e"><use transform="matrix(0.05,0,0,0.05,0,0)" xlink:href="#w"/><use transform="matrix(0.05,0,0,0.05,10,0)" xlink:href="#A"/><use transform="matrix(0.05,0,0,0.05,20,0)" xlink:href="#B"/><use transform="matrix(0.05,0,0,0.05,25,0)" xlink:href="#A"/><use transform="matrix(0.05,0,0,0.05,35,0)" xlink:href="#y"/><use transform="matrix(0.05,0,0,0.05,45,0)" xlink:href="#z"/><use transform="matrix(0.05,0,0,0.05,55,0)" xlink:href="#w"/><use transform="matrix(0.05,0,0,0.05,65,0)" xlink:href="#v"/></g><path d="M101-251c68 0 85 55 85 127S166 4 100 4C33 4 14-52 14-124c0-73 17-127 87-127zm-1 229c47 0 54-49 54-102s-4-102-53-102c-51 0-55 48-55 102 0 53 5 102 54 102" id="M"/><g id="f"><use transform="matrix(0.05,0,0,0.05,0,0)" xlink:href="#w"/><use transform="matrix(0.05,0,0,0.05,10,0)" xlink:href="#A"/><use transform="matrix(0.05,0,0,0.05,20,0)" xlink:href="#B"/><use transform="matrix(0.05,0,0,0.05,25,0)" xlink:href="#A"/><use transform="matrix(0.05,0,0,0.05,35,0)" xlink:href="#y"/><use transform="matrix(0.05,0,0,0.05,45,0)" xlink:href="#z"/><use transform="matrix(0.05,0,0,0.05,55,0)" xlink:href="#w"/><use transform="matrix(0.05,0,0,0.05,65,0)" xlink:href="#v"/><use transform="matrix(0.05,0,0,0.05,75,0)" xlink:href="#C"/><use transform="matrix(0.05,0,0,0.05,80.95,0)" xlink:href="#M"/></g><path d="M27 0v-27h64v-190l-56 39v-29l58-41h29v221h61V0H27" id="N"/><g id="g"><use transform="matrix(0.05,0,0,0.05,0,0)" xlink:href="#w"/><use transform="matrix(0.05,0,0,0.05,10,0)" xlink:href="#A"/><use transform="matrix(0.05,0,0,0.05,20,0)" xlink:href="#B"/><use transform="matrix(0.05,0,0,0.05,25,0)" xlink:href="#A"/><use transform="matrix(0.05,0,0,0.05,35,0)" xlink:href="#y"/><use transform="matrix(0.05,0,0,0.05,45,0)" xlink:href="#z"/><use transform="matrix(0.05,0,0,0.05,55,0)" xlink:href="#w"/><use transform="matrix(0.05,0,0,0.05,65,0)" xlink:href="#v"/><use transform="matrix(0.05,0,0,0.05,75,0)" xlink:href="#C"/><use transform="matrix(0.05,0,0,0.05,80.95,0)" xlink:href="#N"/></g><path d="M101-251c82-7 93 87 43 132L82-64C71-53 59-42 53-27h129V0H18c2-99 128-94 128-182 0-28-16-43-45-43s-46 15-49 41l-32-3c6-41 34-60 81-64" id="O"/><g id="h"><use transform="matrix(0.05,0,0,0.05,0,0)" xlink:href="#w"/><use transform="matrix(0.05,0,0,0.05,10,0)" xlink:href="#A"/><use transform="matrix(0.05,0,0,0.05,20,0)" xlink:href="#B"/><use transform="matrix(0.05,0,0,0.05,25,0)" xlink:href="#A"/><use transform="matrix(0.05,0,0,0.05,35,0)" xlink:href="#y"/><use transform="matrix(0.05,0,0,0.05,45,0)" xlink:href="#z"/><use transform="matrix(0.05,0,0,0.05,55,0)" xlink:href="#w"/><use transform="matrix(0.05,0,0,0.05,65,0)" xlink:href="#v"/><use transform="matrix(0.05,0,0,0.05,75,0)" xlink:href="#C"/><use transform="matrix(0.05,0,0,0.05,80.95,0)" xlink:href="#O"/></g><path d="M96-169c-40 0-48 33-48 73s9 75 48 75c24 0 41-14 43-38l32 2c-6 37-31 61-74 61-59 0-76-41-82-99-10-93 101-131 147-64 4 7 5 14 7 22l-32 3c-4-21-16-35-41-35" id="P"/><path d="M24 0v-261h32V0H24" id="Q"/><g id="i"><use transform="matrix(0.05,0,0,0.05,0,0)" xlink:href="#H"/><use transform="matrix(0.05,0,0,0.05,14.950000000000001,0)" xlink:href="#v"/><use transform="matrix(0.05,0,0,0.05,24.950000000000003,0)" xlink:href="#B"/><use transform="matrix(0.05,0,0,0.05,29.950000000000003,0)" xlink:href="#A"/><use transform="matrix(0.05,0,0,0.05,39.95,0)" xlink:href="#P"/><use transform="matrix(0.05,0,0,0.05,48.95,0)" xlink:href="#z"/><use transform="matrix(0.05,0,0,0.05,58.95,0)" xlink:href="#y"/><use transform="matrix(0.05,0,0,0.05,68.95,0)" xlink:href="#B"/><use transform="matrix(0.05,0,0,0.05,73.95,0)" xlink:href="#E"/><use transform="matrix(0.05,0,0,0.05,79.9,0)" xlink:href="#z"/><use transform="matrix(0.05,0,0,0.05,89.9,0)" xlink:href="#Q"/><use transform="matrix(0.05,0,0,0.05,93.85000000000001,0)" xlink:href="#Q"/><use transform="matrix(0.05,0,0,0.05,97.80000000000001,0)" xlink:href="#v"/><use transform="matrix(0.05,0,0,0.05,107.80000000000001,0)" xlink:href="#E"/></g><g id="j"><use transform="matrix(0.03703703703703704,0,0,0.03703703703703704,0,0)" xlink:href="#I"/><use transform="matrix(0.03703703703703704,0,0,0.03703703703703704,6.666666666666668,0)" xlink:href="#P"/><use transform="matrix(0.03703703703703704,0,0,0.03703703703703704,13.333333333333336,0)" xlink:href="#A"/><use transform="matrix(0.03703703703703704,0,0,0.03703703703703704,20.740740740740744,0)" xlink:href="#Q"/><use transform="matrix(0.03703703703703704,0,0,0.03703703703703704,23.66666666666667,0)" xlink:href="#v"/></g><g id="k"><use transform="matrix(0.03703703703703704,0,0,0.03703703703703704,0,0)" xlink:href="#v"/><use transform="matrix(0.03703703703703704,0,0,0.03703703703703704,7.407407407407408,0)" xlink:href="#L"/><use transform="matrix(0.03703703703703704,0,0,0.03703703703703704,14.074074074074076,0)" xlink:href="#v"/><use transform="matrix(0.03703703703703704,0,0,0.03703703703703704,21.481481481481485,0)" xlink:href="#y"/><use transform="matrix(0.03703703703703704,0,0,0.03703703703703704,28.888888888888893,0)" xlink:href="#B"/><use transform="matrix(0.03703703703703704,0,0,0.03703703703703704,32.592592592592595,0)" xlink:href="#I"/></g><path d="M145-31C134-9 116 4 85 4 32 4 16-35 15-94c0-59 17-99 70-100 32-1 48 14 60 33 0-11-1-24 2-32h30l-1 268h-32zM93-21c41 0 51-33 51-76s-8-73-50-73c-40 0-46 35-46 75s5 74 45 74" id="R"/><g id="l"><use transform="matrix(0.05,0,0,0.05,0,0)" xlink:href="#D"/><use transform="matrix(0.05,0,0,0.05,10,0)" xlink:href="#z"/><use transform="matrix(0.05,0,0,0.05,20,0)" xlink:href="#I"/><use transform="matrix(0.05,0,0,0.05,29,0)" xlink:href="#B"/><use transform="matrix(0.05,0,0,0.05,34,0)" xlink:href="#x"/><use transform="matrix(0.05,0,0,0.05,44,0)" xlink:href="#E"/><use transform="matrix(0.05,0,0,0.05,49.95,0)" xlink:href="#v"/><use transform="matrix(0.05,0,0,0.05,59.95,0)" xlink:href="#I"/><use transform="matrix(0.05,0,0,0.05,68.95,0)" xlink:href="#R"/><use transform="matrix(0.05,0,0,0.05,78.95,0)" xlink:href="#Q"/></g><path d="M512-137c164 0 267-115 267-285v-1034h193v1031c4 276-186 445-460 445C234 20 52-130 53-402h192c0 167 97 265 267 265" id="S"/><path d="M584 20C278 26 81-227 91-551c10-320 175-545 491-551 308-5 503 247 494 573-9 322-175 543-492 549zm-2-970c-208 0-305 185-305 421 0 216 106 398 307 398 211 0 307-186 307-420 0-214-109-399-309-399" id="T"/><path d="M634-1102c292 0 422 254 422 573 0 298-143 547-420 549-137 0-242-48-317-145L310 0H140v-1536h185v573c75-93 178-139 309-139zm-44 965c207 0 281-175 281-413 0-224-79-395-283-395-122 0-210 57-263 170v468c57 113 145 170 265 170" id="U"/><g id="n"><use transform="matrix(0.0065107421875,0,0,0.0065107421875,0,0)" xlink:href="#S"/><use transform="matrix(0.0065107421875,0,0,0.0065107421875,7.357138671875,0)" xlink:href="#T"/><use transform="matrix(0.0065107421875,0,0,0.0065107421875,14.961685546875,0)" xlink:href="#U"/></g><path d="M631-137c179 0 314-70 314-231 0-71-25-127-75-166s-141-77-272-115c-165-47-285-106-360-175s-112-154-112-255c0-245 231-397 495-397 206 0 369 89 449 218 43 68 65 142 65 223H942c0-184-129-283-321-283-172 0-299 76-301 236 0 59 26 109 76 150s135 78 256 113c205 59 345 116 436 256 35 53 50 119 50 193-2 256-231 398-507 390C333 12 90-129 80-422h193c0 187 160 285 358 285" id="V"/><path d="M491 20c-241-1-355-148-355-398v-704h185v699c0 164 67 246 200 246 141 0 235-53 282-158v-787h185V0H812l-4-107C736-22 630 20 491 20" id="W"/><path d="M1240-945c-141 0-250 95-250 227V0H804v-709c0-157-77-236-231-236-121 0-204 52-249 155V0H139v-1082h175l5 120c79-93 186-140 321-140 151 0 254 58 309 174 69-98 181-174 345-174 237 0 362 126 362 377V0h-185v-714c-2-159-67-231-231-231" id="X"/><path d="M341 0H156v-1082h185V0zm-91-1264c-68 0-108-42-109-105 0-62 41-107 109-107s110 44 110 107-42 105-110 105" id="Y"/><path d="M456 20C285 20 205-92 206-268v-671H9v-143h197v-262h185v262h202v143H391v671c-9 125 92 149 207 118V0c-49 13-96 20-142 20" id="Z"/><g id="o"><use transform="matrix(0.0065107421875,0,0,0.0065107421875,0,0)" xlink:href="#V"/><use transform="matrix(0.0065107421875,0,0,0.0065107421875,7.9105517578125,0)" xlink:href="#W"/><use transform="matrix(0.0065107421875,0,0,0.0065107421875,15.2611796875,0)" xlink:href="#U"/><use transform="matrix(0.0065107421875,0,0,0.0065107421875,22.7420224609375,0)" xlink:href="#X"/><use transform="matrix(0.0065107421875,0,0,0.0065107421875,34.4288046875,0)" xlink:href="#Y"/><use transform="matrix(0.0065107421875,0,0,0.0065107421875,37.6646435546875,0)" xlink:href="#Z"/></g><filter id="m" filterUnits="objectBoundingBox" x="-.02" y="0" width="1.03" height="1.03"><feOffset result="offOut" in="SourceAlpha" dy="1"/><feGaussianBlur result="blurOut" in="offOut" stdDeviation=".75"/><feColorMatrix result="colorOut" in="blurOut" values="0 0 0 0 0 0 0 0 0 0 0 0 0 0 0 0 0 0 0.4 0"/><feBlend in="SourceGraphic" in2="colorOut"/></filter><path d="M688-137c238 0 323-102 359-325h193c-32 297-228 482-552 482-361 0-569-299-569-680 0-197 8-360 73-497 88-186 257-317 513-319 316-2 509 195 535 488h-193c-31-212-118-330-342-330-272 0-397 224-393 523v141c-3 282 115 517 376 517" id="aa"/><path d="M341 0H156v-1536h185V0" id="ab"/><path d="M538-131c121 0 232-49 232-156 0-50-20-88-56-117-73-60-334-92-420-143-92-55-162-110-162-238 0-190 192-317 400-317 223 0 414 129 413 338H759c0-108-110-186-227-186-119 0-215 53-215 159 0 45 18 78 53 101 76 52 331 90 416 139 98 57 169 115 169 251C955-92 760 20 538 20c-176 0-314-68-386-174-38-55-57-115-57-179h185c6 129 116 202 258 202" id="ac"/><path d="M599-131c141 0 220-65 285-146l113 88C906-50 770 20 589 20 281 21 93-214 93-545c0-223 93-397 233-485 74-48 154-72 240-72 300 2 449 218 445 537v77H278c0 197 129 357 321 357zm227-509c-3-180-88-310-260-310-170 0-264 140-282 310h542" id="ad"/><path d="M663-916c-163-27-288 18-338 148V0H140v-1082h180l3 125c61-97 147-145 258-145 36 0 63 5 82 14v172" id="ae"/><g id="p"><use transform="matrix(0.0065107421875,0,0,0.0065107421875,0,0)" xlink:href="#aa"/><use transform="matrix(0.0065107421875,0,0,0.0065107421875,8.678819335937499,0)" xlink:href="#ab"/><use transform="matrix(0.0065107421875,0,0,0.0065107421875,11.914658203124999,0)" xlink:href="#W"/><use transform="matrix(0.0065107421875,0,0,0.0065107421875,19.2652861328125,0)" xlink:href="#ac"/><use transform="matrix(0.0065107421875,0,0,0.0065107421875,26.140629882812497,0)" xlink:href="#Z"/><use transform="matrix(0.0065107421875,0,0,0.0065107421875,30.496316406249992,0)" xlink:href="#ad"/><use transform="matrix(0.0065107421875,0,0,0.0065107421875,37.560471679687495,0)" xlink:href="#ae"/></g><path d="M973-380H363L226 0H28l556-1456h168L1309 0h-197zM421-538h495l-248-681" id="af"/><path d="M277-555c0 244 77 420 297 424 127 2 249-93 255-210h175C980-127 805 20 574 20 258 20 81-222 92-562c11-319 164-533 481-540 237-5 426 165 431 392H829c-7-133-115-242-256-240-209 4-296 166-296 395" id="ag"/><g id="q"><use transform="matrix(0.0065107421875,0,0,0.0065107421875,0,0)" xlink:href="#af"/><use transform="matrix(0.0065107421875,0,0,0.0065107421875,8.6983515625,0)" xlink:href="#ag"/><use transform="matrix(0.0065107421875,0,0,0.0065107421875,15.6778671875,0)" xlink:href="#ag"/><use transform="matrix(0.0065107421875,0,0,0.0065107421875,22.657382812499996,0)" xlink:href="#ad"/><use transform="matrix(0.0065107421875,0,0,0.0065107421875,29.721538085937492,0)" xlink:href="#ac"/><use transform="matrix(0.0065107421875,0,0,0.0065107421875,36.596881835937495,0)" xlink:href="#ac"/></g><path d="M665-137c214 0 337-121 336-332v-987h193v990c-3 300-218 486-529 486-309 0-526-181-525-484v-992h190v986c-1 210 123 333 335 333" id="ah"/><path d="M375 0H183v-1456h192V0" id="ai"/><g id="r"><use transform="matrix(0.0065107421875,0,0,0.0065107421875,0,0)" xlink:href="#ah"/><use transform="matrix(0.0065107421875,0,0,0.0065107421875,8.646265625,0)" xlink:href="#ai"/></g><g id="s"><use transform="matrix(0.0065107421875,0,0,0.0065107421875,0,0)" xlink:href="#af"/><use transform="matrix(0.0065107421875,0,0,0.0065107421875,8.6983515625,0)" xlink:href="#ag"/><use transform="matrix(0.0065107421875,0,0,0.0065107421875,15.6778671875,0)" xlink:href="#ag"/><use transform="matrix(0.0065107421875,0,0,0.0065107421875,22.657382812499996,0)" xlink:href="#ad"/><use transform="matrix(0.0065107421875,0,0,0.0065107421875,29.721538085937492,0)" xlink:href="#ac"/><use transform="matrix(0.0065107421875,0,0,0.0065107421875,36.596881835937495,0)" xlink:href="#ac"/></g><path d="M497-251l268-831h189L566 0H425L33-1082h189" id="aj"/><path d="M561-1102c238-4 403 126 403 351v498c0 99 13 178 38 237V0H808c-11-21-19-59-26-114C696-25 593 20 474 20c-199 0-368-130-365-320 4-251 214-359 490-356h180v-85c-1-135-86-212-229-212-115 0-232 67-233 171H131c20-205 206-316 430-320zM294-326c0 117 90 185 207 185 122 0 239-75 278-162v-222H634c-227 0-340 66-340 199" id="ak"/><g id="t"><use transform="matrix(0.0065107421875,0,0,0.0065107421875,0,0)" xlink:href="#aj"/><use transform="matrix(0.0065107421875,0,0,0.0065107421875,6.3609951171875,0)" xlink:href="#ak"/><use transform="matrix(0.0065107421875,0,0,0.0065107421875,13.6139619140625,0)" xlink:href="#ae"/><use transform="matrix(0.0065107421875,0,0,0.0065107421875,18.12590625,0)" xlink:href="#Y"/><use transform="matrix(0.0065107421875,0,0,0.0065107421875,21.3617451171875,0)" xlink:href="#T"/><use transform="matrix(0.0065107421875,0,0,0.0065107421875,28.9662919921875,0)" xlink:href="#W"/><use transform="matrix(0.0065107421875,0,0,0.0065107421875,36.316919921875,0)" xlink:href="#ac"/></g><path d="M520 20C244 20 95-247 95-550c0-298 151-550 427-552 127 0 227 43 301 130v-564h185V0H838l-9-116C755-25 652 20 520 20zm48-965c-210 0-288 177-288 416 0 218 87 392 286 392 117 0 203-53 257-158v-497c-55-102-140-153-255-153" id="al"/><g id="u"><use transform="matrix(0.0065107421875,0,0,0.0065107421875,0,0)" xlink:href="#X"/><use transform="matrix(0.0065107421875,0,0,0.0065107421875,11.6867822265625,0)" xlink:href="#T"/><use transform="matrix(0.0065107421875,0,0,0.0065107421875,19.2913291015625,0)" xlink:href="#al"/><use transform="matrix(0.0065107421875,0,0,0.0065107421875,26.811236328125,0)" xlink:href="#ad"/></g></defs></g></svg>